<?xml version="1.0" encoding="UTF-8"?>
<svg width="13.417mm" height="20.541mm" version="1.1" viewBox="0 0 13.417 20.541" xmlns="http://www.w3.org/2000/svg" xmlns:cc="http://creativecommons.org/ns#" xmlns:dc="http://purl.org/dc/elements/1.1/" xmlns:osb="http://www.openswatchbook.org/uri/2009/osb" xmlns:rdf="http://www.w3.org/1999/02/22-rdf-syntax-ns#" xmlns:xlink="http://www.w3.org/1999/xlink">
 <defs>
  <linearGradient id="linearGradient4057" osb:paint="gradient">
   <stop stop-color="#666" offset="0"/>
   <stop stop-color="#404040" offset="1"/>
  </linearGradient>
  <linearGradient id="linearGradient3003" x1="-219" x2="-185" y1="25" y2="25" gradientUnits="userSpaceOnUse" xlink:href="#linearGradient4057"/>
  <linearGradient id="linearGradient3001" x1="-219" x2="-185" y1="25" y2="25" gradientTransform="matrix(.98077 0 0 .98077 -4.2115 2.038)" gradientUnits="userSpaceOnUse" xlink:href="#linearGradient4057"/>
 </defs>
 <metadata>
  <rdf:RDF>
   <cc:Work rdf:about="">
    <dc:format>image/svg+xml</dc:format>
    <dc:type rdf:resource="http://purl.org/dc/dcmitype/StillImage"/>
    <dc:title/>
   </cc:Work>
  </rdf:RDF>
 </metadata>
 <g transform="translate(-91.227 -108.6)">
  <g transform="matrix(1.1113 0 0 1.1113 866.99 339.46)">
   <g transform="matrix(.36206 0 0 .36206 -618.76 -205.61)" fill="url(#linearGradient3003)" stroke-width=".65756">
    <path d="m-188.6 41.269-13.731 3.9231-13.731-3.9231-2.9423-33.346h33.346c-0.98077 11.114-1.9615 22.232-2.9423 33.346zm0.80071-31.385h-29.063l2.6358 29.867 11.896 3.402 11.896-3.402zm-22.573 19.615h3.9231l0.0958 2.4519 4.0226 1.3715 4.0227-1.3715 0.29117-4.4135h-8.6277l-0.19921-3.9231h9.0261l0.29118-3.9231h-13.532l-0.295-3.9231h17.949l-0.49039 7.8462-0.6896 11.279-7.7465 2.5515-7.7466-2.5515z" fill="url(#linearGradient3001)" fill-rule="evenodd" stroke-width=".32878"/>
   </g>
   <path d="m-695.25-207.73h2.0788v0.86935h-1.2094v0.86936h1.2096v0.86929h-2.0789zm2.4946 0h2.0788v0.75595h-1.2095v0.15118h1.2095v1.7387h-2.0788v-0.79384h1.2095v-0.15119h-1.2096v-1.7008zm2.4947 0h2.0788v0.75595h-1.2095v0.15118h1.2095v1.7387h-2.0788v-0.79384h1.2095v-0.15119h-1.2094v-1.7008z" fill="#595959" stroke-width="1.6487"/>
  </g>
 </g>
</svg>
