<?xml version="1.0" encoding="UTF-8"?>
<svg width="16.759mm" height="15.875mm" version="1.1" viewBox="0 0 16.759 15.875" xmlns="http://www.w3.org/2000/svg" xmlns:cc="http://creativecommons.org/ns#" xmlns:dc="http://purl.org/dc/elements/1.1/" xmlns:osb="http://www.openswatchbook.org/uri/2009/osb" xmlns:rdf="http://www.w3.org/1999/02/22-rdf-syntax-ns#" xmlns:xlink="http://www.w3.org/1999/xlink">
 <defs>
  <linearGradient id="linearGradient3009" x2="255.84" y1="121.01" y2="121.01" gradientUnits="userSpaceOnUse">
   <stop stop-color="#666" offset="0"/>
   <stop stop-color="#404040" offset="1"/>
  </linearGradient>
 </defs>
 <metadata>
  <rdf:RDF>
   <cc:Work rdf:about="">
    <dc:format>image/svg+xml</dc:format>
    <dc:type rdf:resource="http://purl.org/dc/dcmitype/StillImage"/>
    <dc:title/>
   </cc:Work>
  </rdf:RDF>
 </metadata>
 <g transform="translate(-70.261 -105.09)">
  <g transform="matrix(.065488 0 0 .065488 70.261 105.09)" stroke-width="145.62">
   <path d="m255.52 175.62c0.115-1.115 0.197-2.24 0.261-3.371 0.078-1.339-80.562-77.85-80.562-77.85h-1.928s81.736 86.215 82.229 81.22z" fill="#333"/>
   <path d="m83.472 149.08c-0.107 0.235-0.213 0.47-0.323 0.704-0.114 0.246-0.232 0.491-0.349 0.734-2.57 5.36 35.987 43.053 39.088 38.474 0.141-0.202 0.283-0.416 0.424-0.618 0.157-0.24 0.312-0.47 0.467-0.71 2.48-3.765-38.206-41.032-39.307-38.584z" fill="#4d4d4d"/>
   <path d="m137.96 202.08c-0.109 0.24-0.885 1.552-1.594 2.245-0.12 0.24 37.64 37.688 37.64 37.688h3.4c2e-3 0-35.446-38.35-39.446-39.933z" fill="#4d4d4d"/>
   <g>
    <path d="m255.84 171.57c-1.766 39.147-34.152 70.448-73.72 70.448h-5.35l-39.514-38.928c3.25-4.584 6.272-9.333 8.962-14.285h35.902c11.354 0 20.594-9.235 20.594-20.595 0-11.355-9.24-20.595-20.594-20.595h-21.246c1.619-8.557 2.504-17.381 2.504-26.408 0-9.165-0.901-18.114-2.578-26.808h13.197l81.61 80.414c0.097-1.078 0.174-2.155 0.233-3.243zm-234.37-171.57h-21.467v53.213h21.467c37.493 0 68 30.499 68 67.992 0 10.2-2.275 19.883-6.318 28.576l39.163 38.59c12.859-19.24 20.376-42.339 20.376-67.166 0-66.832-54.381-121.2-121.22-121.2z" fill="url(#linearGradient3009)"/>
    <path d="m182.12 0h-86.928c21.232 12.963 38.813 31.344 50.792 53.213h36.136c11.354 0 20.594 9.235 20.594 20.595 0 11.357-9.24 20.592-20.594 20.592h-8.12l81.61 80.413c0.192-2.181 0.312-4.376 0.312-6.605 0-17.939-6.437-34.395-17.125-47.203 10.688-12.802 17.125-29.261 17.125-47.197 0-40.696-33.104-73.808-73.802-73.808z" fill="#404040"/>
    <path d="m176.76 242.02h-80.957c16.296-10.064 30.384-23.35 41.443-38.928zm-54.453-53.645-39.16-38.59c-10.819 23.251-34.395 39.422-61.685 39.422h-21.467v53.208h21.467c42.01 0 79.09-21.488 100.84-54.04z" fill="#4d4d4d"/>
   </g>
  </g>
 </g>
</svg>
