<?xml version="1.0" encoding="UTF-8"?>
<svg width="17.357mm" height="17.357mm" version="1.1" viewBox="0 0 17.357 17.357" xmlns="http://www.w3.org/2000/svg" xmlns:cc="http://creativecommons.org/ns#" xmlns:dc="http://purl.org/dc/elements/1.1/" xmlns:osb="http://www.openswatchbook.org/uri/2009/osb" xmlns:rdf="http://www.w3.org/1999/02/22-rdf-syntax-ns#" xmlns:xlink="http://www.w3.org/1999/xlink">
 <defs>
  <linearGradient id="linearGradient3007" x1="1175.2" x2="1240.8" y1="1547" y2="1547" gradientTransform="matrix(.26458 0 0 .26458 -220.22 -296.86)" gradientUnits="userSpaceOnUse">
   <stop stop-color="#666" offset="0"/>
   <stop stop-color="#404040" offset="1"/>
  </linearGradient>
 </defs>
 <metadata>
  <rdf:RDF>
   <cc:Work rdf:about="">
    <dc:format>image/svg+xml</dc:format>
    <dc:type rdf:resource="http://purl.org/dc/dcmitype/StillImage"/>
    <dc:title/>
   </cc:Work>
  </rdf:RDF>
 </metadata>
 <g transform="translate(-90.717 -103.77)">
  <path d="m99.396 103.77c-4.0463 0-7.4418 2.7666-8.4072 6.5092l10.577 10.577c3.7425-0.9655 6.5092-4.361 6.5092-8.4073h-5.6953v1.6273h3.7424c-0.53155 2.213-2.1263 4.0027-4.2199 4.8162l-8.9493-8.9493c1.0197-2.5818 3.5146-4.4044 6.4435-4.4044 2.3106 0 4.3392 1.1282 5.6193 2.8748l1.3343-1.1498c-1.5838-2.1262-4.1006-3.4933-6.9536-3.4933zm-8.6785 8.6785a8.6783 8.6783 0 0 0 8.6785 8.6786c0.0435 0 0.0974-1.9e-4 -8.6785-8.6786z" fill="url(#linearGradient3007)" style="paint-order:markers stroke fill"/>
 </g>
</svg>
