<?xml version="1.0" encoding="UTF-8"?>
<svg width="18.838mm" height="21.167mm" version="1.1" viewBox="0 0 18.838 21.167" xmlns="http://www.w3.org/2000/svg" xmlns:cc="http://creativecommons.org/ns#" xmlns:dc="http://purl.org/dc/elements/1.1/" xmlns:osb="http://www.openswatchbook.org/uri/2009/osb" xmlns:rdf="http://www.w3.org/1999/02/22-rdf-syntax-ns#" xmlns:xlink="http://www.w3.org/1999/xlink">
 <defs>
  <linearGradient id="linearGradient3011" x1="-38.927" x2="81.638" y1="-254.18" y2="-254.18" gradientTransform="matrix(.15625 0 0 .15625 68.508 149.47)" gradientUnits="userSpaceOnUse">
   <stop stop-color="#666" offset="0"/>
   <stop stop-color="#404040" offset="1"/>
  </linearGradient>
 </defs>
 <metadata>
  <rdf:RDF>
   <cc:Work rdf:about="">
    <dc:format>image/svg+xml</dc:format>
    <dc:type rdf:resource="http://purl.org/dc/dcmitype/StillImage"/>
    <dc:title/>
   </cc:Work>
  </rdf:RDF>
 </metadata>
 <g transform="translate(-62.425 -99.176)">
  <path d="m79.817 112.27v-5.028c0.17222-0.0412 0.34153-0.10705 0.50264-0.19967 0.90263-0.52428 1.2107-1.6755 0.69184-2.5782-0.52427-0.90263-1.6755-1.2107-2.5782-0.69184-0.16236 0.0943-0.30517 0.20917-0.42772 0.33896l-4.3533-2.5134c0.2729-0.91029-0.17655-1.8967-1.0722-2.2759-0.96062-0.40667-2.0658 0.0411-2.4725 1.0017-0.17773 0.41979-0.19225 0.86718-0.0722 1.2718l-4.3534 2.5135c-0.58427-0.61562-1.5335-0.78132-2.3026-0.34227-0.90414 0.51618-1.2234 1.6698-0.70724 2.574 0.26885 0.47092 0.71073 0.78271 1.2001 0.90091v5.0293c-0.87406 0.21319-1.4948 1.0245-1.4379 1.9516 0.0639 1.0392 0.95834 1.8267 2.0023 1.7653 0.49368-0.0325 0.93003-0.2508 1.246-0.58185l4.3527 2.5131c-0.2555 0.86143 0.13452 1.8056 0.96681 2.221 0.93335 0.46584 2.0667 0.0832 2.5302-0.84541 0.2323-0.46547 0.25471-0.98006 0.10312-1.4368l4.3272-2.4984c0.34914 0.39234 0.85826 0.63831 1.4236 0.63293 1.0411-0.01 1.8823-0.86148 1.8724-1.9026-5e-3 -0.88558-0.61618-1.6217-1.4418-1.8197zm-13.666 1.388c-0.0873-0.35818-0.27491-0.67381-0.53004-0.91767l5.6984-9.8697c0.35301 0.10292 0.71685 0.0978 1.0519 2.4e-4l5.6979 9.8688c-0.25768 0.24533-0.44614 0.56211-0.53268 0.91832zm11.59-7.3075c0.26552 0.46192 0.69819 0.76764 1.1783 0.887v5.0353c-0.0244 6e-3 -0.0485 0.0125-0.0724 0.0194l-5.6984-9.8696c0.0171-0.0164 0.0338-0.0334 0.0503-0.0504l4.3633 2.5192c-0.13481 0.47359-0.0857 0.99857 0.17893 1.459zm-7.1997-3.9268-5.6974 9.8679c-0.0247-7e-3 -0.0496-0.014-0.0747-0.0203v-5.0324c0.16313-0.0407 0.3235-0.10361 0.47663-0.19104 0.77102-0.44017 1.1143-1.3404 0.88039-2.1596l4.361-2.5179c0.0175 0.0181 0.0357 0.0358 0.0541 0.0533zm2.6976 14.758c-0.15245-0.16717-0.33742-0.30995-0.55225-0.41717-0.75731-0.37797-1.6446-0.20044-2.2013 0.37853l-4.3548-2.5143c6e-3 -0.0243 0.0137-0.0488 0.0197-0.0733h11.388c0.0104 0.0418 0.0214 0.0832 0.0345 0.1239z" fill="url(#linearGradient3011)" stroke-width=".26458"/>
 </g>
</svg>
