<?xml version="1.0" encoding="UTF-8"?>
<svg width="12.459mm" height="19.67mm" version="1.1" viewBox="0 0 12.459 19.67" xmlns="http://www.w3.org/2000/svg" xmlns:cc="http://creativecommons.org/ns#" xmlns:dc="http://purl.org/dc/elements/1.1/" xmlns:osb="http://www.openswatchbook.org/uri/2009/osb" xmlns:rdf="http://www.w3.org/1999/02/22-rdf-syntax-ns#">
 <defs>
  <clipPath id="clipPath4164-7">
   <path d="m-666.19-202.98 1.0501 11.931 4.7139 1.3208 4.733-1.327 1.0501-11.925zm1.5188 1.695h4.3227v1.7214h-2.4345l0.15968 1.7632h2.2748v1.7177h-3.8525zm0.54624 6.0663h1.7291l0.12142 1.3767 1.926 0.51572v1.7973l-3.5336-0.98597z" fill="#404040" stroke-width=".26458"/>
  </clipPath>
 </defs>
 <metadata>
  <rdf:RDF>
   <cc:Work rdf:about="">
    <dc:format>image/svg+xml</dc:format>
    <dc:type rdf:resource="http://purl.org/dc/dcmitype/StillImage"/>
    <dc:title/>
   </cc:Work>
  </rdf:RDF>
 </metadata>
 <g transform="translate(-92.833 -111.12)">
  <g transform="matrix(1.0783 0 0 1.0783 811.13 335.37)" stroke-width=".9274">
   <rect transform="translate(.034108)" x="-669.36" y="-205.11" width="8.9661" height="18.649" clip-path="url(#clipPath4164-7)" fill="#404040" style="paint-order:markers stroke fill"/>
   <g transform="translate(-772.59 68.173)" fill="#595959" stroke-width=".24538">
    <path d="m106.64-276.15h0.88193v0.87427h0.81293v-0.87427h0.88195v2.6458h-0.88195v-0.88195h-0.80525v0.88195h-0.88961m3.7425-1.7639h-0.77841v-0.88195h2.4426v0.88195h-0.78224v1.7639h-0.88195m2.0515-2.6458h0.92412l0.56751 0.9318 0.56751-0.9318h0.92412v2.6458h-0.88194v-1.3114l-0.61735 0.95096-0.61737-0.95096v1.3114h-0.8666m3.4204-2.6458h0.88195v1.7716h1.2501v0.87429h-2.132"/>
    <path d="m112.22-271.16v1.695h4.3072l-0.15915 1.7214h-4.1481v1.7632h3.9925l-0.47387 5.2855-3.5187 0.97615v1.8108l4.6726-1.2702 1.1022-11.982zm0 6.9009v2.7507l1.9146-0.51366 0.201-2.2371z"/>
   </g>
  </g>
 </g>
</svg>
