<?xml version="1.0" encoding="UTF-8"?>
<svg width="15.418mm" height="11.2mm" version="1.1" viewBox="0 0 15.418 11.2" xmlns="http://www.w3.org/2000/svg" xmlns:cc="http://creativecommons.org/ns#" xmlns:dc="http://purl.org/dc/elements/1.1/" xmlns:osb="http://www.openswatchbook.org/uri/2009/osb" xmlns:rdf="http://www.w3.org/1999/02/22-rdf-syntax-ns#" xmlns:xlink="http://www.w3.org/1999/xlink">
 <defs>
  <linearGradient id="linearGradient3033" x1="191.62" x2="214.9" y1="-194.78" y2="-194.78" gradientTransform="matrix(3.5974 0 0 3.7795 -2410 2291.1)" gradientUnits="userSpaceOnUse">
   <stop stop-color="#666" offset="0"/>
   <stop stop-color="#404040" offset="1"/>
  </linearGradient>
 </defs>
 <metadata>
  <rdf:RDF>
   <cc:Work rdf:about="">
    <dc:format>image/svg+xml</dc:format>
    <dc:type rdf:resource="http://purl.org/dc/dcmitype/StillImage"/>
    <dc:title/>
   </cc:Work>
  </rdf:RDF>
 </metadata>
 <g transform="translate(-90.888 -109.8)">
  <g transform="matrix(1.0783 0 0 1.0783 -121.93 324.17)" stroke-width=".9274">
   <path transform="matrix(.26458 0 0 .26458 646.92 -607.78)" d="m-1683.8 1545.7v26.949c0 3.8499-1.5834 5.1328-4.1172 5.1328-2.6404 0-3.73-1.5197-4.9395-3.664l-6.2695 4.3828h0.107c1.8163 4.1 5.5094 6.457 11.676 6.457 6.8265 0 11.742-4.2185 11.742-12.201v-27.057zm25.506 0.3086c-6.8839 0-11.287 4.4028-11.287 10.18 0 6.2771 3.6904 9.2495 9.25 11.615 3.1201 1.3366 7.5391 2.6325 7.5391 5.9453 0 2.2017-2.0368 3.7969-5.2266 3.7969-3.8007 0-5.9453-1.9819-7.5976-4.6797l-6.2735 3.6328c2.255 4.4608 6.8807 7.8731 14.035 7.8731 7.3226 0 12.772-3.7972 12.772-10.734 0-7.6342-5.2411-9.9672-12.166-12.936-3.3046-1.4309-4.7344-2.3654-4.7344-4.6778 0-1.8696 1.4303-3.3008 3.6894-3.3008 2.2017 0 3.633 0.9351 4.9532 3.3008l5.998-3.8535c-2.5297-4.4567-6.0558-6.1621-10.951-6.1621z" fill="url(#linearGradient3033)" style="paint-order:markers stroke fill"/>
   <g transform="matrix(1.0848 0 0 1.0848 191.66 -208.57)" fill="none" fill-rule="evenodd" stroke-width=".2262">
    <g transform="translate(-420,-7479)" fill="#fff"></g>
   </g>
  </g>
 </g>
</svg>
