<?xml version="1.0" encoding="UTF-8"?>
<svg width="15.404mm" height="15.407mm" version="1.1" viewBox="0 0 15.404 15.407" xmlns="http://www.w3.org/2000/svg" xmlns:cc="http://creativecommons.org/ns#" xmlns:dc="http://purl.org/dc/elements/1.1/" xmlns:osb="http://www.openswatchbook.org/uri/2009/osb" xmlns:rdf="http://www.w3.org/1999/02/22-rdf-syntax-ns#" xmlns:xlink="http://www.w3.org/1999/xlink">
 <defs>
  <linearGradient id="linearGradient4057" osb:paint="gradient">
   <stop stop-color="#666" offset="0"/>
   <stop stop-color="#404040" offset="1"/>
  </linearGradient>
  <linearGradient id="linearGradient3025" x1="3.0047" x2="46.997" y1="24.999" y2="24.999" gradientUnits="userSpaceOnUse" xlink:href="#linearGradient4057"/>
 </defs>
 <metadata>
  <rdf:RDF>
   <cc:Work rdf:about="">
    <dc:format>image/svg+xml</dc:format>
    <dc:type rdf:resource="http://purl.org/dc/dcmitype/StillImage"/>
    <dc:title/>
   </cc:Work>
  </rdf:RDF>
 </metadata>
 <g transform="translate(-110.63 -90.999)">
  <g transform="matrix(.35014 0 0 .35014 109.57 89.949)" fill="url(#linearGradient3025)" stroke-width=".75564">
   <path d="m29.867 3.0078c-0.10547 0.015625-0.21094 0.046875-0.3125 0.09375-0.85938 0.42578-1.8359 1.6914-2.0234 1.9414-0.011719 0.015625-0.023437 0.03125-0.03125 0.046875-0.96484 1.4453-1.4805 3.1367-1.5 4.8984-0.01172 1.3203 0.24609 2.6289 0.76953 3.8906 1.2188 2.9258 3.75 5.3477 6.7617 6.4805 0.10156 0.03516 0.19922 0.07031 0.375 0.13281 0.01563 0.0078 0.16406 0.05469 0.1875 0.05859l0.10938 0.03906c0.15625 0.05078 0.31641 0.10156 0.47266 0.13281 0.79297 0.16016 1.5664 0.25 2.293 0.27344 0.125 0 0.25 0.0039 0.375 0.0039 5.4805 0 7.6055-3.8672 8.3125-5.1562 0.07031-0.125 0.12109-0.22656 0.16797-0.28906 0-0.0039 0-0.0039 0.0039-0.0078 0.30859-0.45703 0.19141-1.0781-0.26562-1.3906-0.45312-0.30859-1.0742-0.19141-1.3867 0.26562h-0.0039c-1.4609 2.1523-3.9609 2.8047-7.4258 1.9453-0.25781-0.0625-0.53906-0.16016-0.78906-0.25391-0.32812-0.11719-0.65625-0.25391-0.96094-0.40234-0.60547-0.30078-1.1758-0.66016-1.6914-1.0586-3.0469-2.3633-4.2383-7.2812-2.457-10.121 0.23828-0.37891 0.19531-0.87109-0.10547-1.2031-0.22656-0.25-0.55469-0.36328-0.875-0.32031zm-8.8594 1.9922c-0.22656-0.00391-0.45703 0.070313-0.64453 0.22656-1.5117 1.2305-3.0586 3.2461-3.125 3.3281-0.0078 0.015625-0.01563 0.027343-0.02734 0.042968-2.7344 3.9805-2.9414 9.6445-0.52344 14.43 0.37891 0.75781 0.80859 1.4805 1.2656 2.1445l0.13672 0.19531c0.38672 0.56641 0.82031 1.207 1.375 1.707 0.19141 0.21875 0.39844 0.42969 0.60156 0.63281l0.09766 0.10156 0.08203 0.08203c0.20703 0.19922 0.41797 0.40234 0.63672 0.59766h0.0039c0.01563 0.02344 0.03906 0.03906 0.05859 0.05859 0.24609 0.21875 0.49609 0.42578 0.82812 0.6875l0.08984 0.06641c0.25781 0.20703 0.51953 0.40234 0.78906 0.59375 0.02734 0.01953 0.05469 0.03906 0.08203 0.05859 0.09375 0.0625 0.1875 0.12109 0.28125 0.1875l0.09375 0.0625 0.10938 0.07031c0.19922 0.13281 0.39453 0.25391 0.67188 0.41406 0.17969 0.10938 0.37109 0.21875 0.49609 0.28125 0.05469 0.03125 0.11328 0.0625 0.25 0.13672l0.30469 0.16016c0.01563 0.0078 0.08594 0.03906 0.10156 0.04687 0.19922 0.10156 0.40625 0.19922 0.61328 0.29297l0.31641 0.14062c0.20703 0.08984 0.41797 0.17578 0.67578 0.27344l0.11719 0.04297c0.0078 0.0078 0.10547 0.04297 0.11328 0.04687 0.1875 0.06641 0.37891 0.13281 0.57031 0.19531l0.4375 0.14453c0.21875 0.07422 0.47266 0.16016 0.75 0.20703 1.3633 0.22658 2.6875 0.34377 3.9414 0.34377 0.14844 0 0.29688-0.0039 0.44141-0.0039 11.039-0.24219 13.91-9.6211 13.938-9.7148 0.13672-0.47266-0.08594-0.97656-0.53125-1.1875-0.44531-0.21094-0.97656-0.0625-1.2539 0.34375-2.7969 4.0859-8.0859 5.8125-13.473 4.3906-0.25-0.0625-0.49219-0.13281-0.79297-0.23047-0.05078-0.01563-0.09375-0.03125-0.17578-0.0625-0.17578-0.05469-0.34766-0.11328-0.54297-0.1875l-0.27734-0.10547c-0.16016-0.0625-0.32031-0.125-0.51562-0.21094l-0.12891-0.05859c-0.23828-0.10156-0.46875-0.21484-0.67578-0.31641l-0.57031-0.29688c-0.12891-0.0625-0.24219-0.13281-0.41797-0.23828l-0.09766-0.05469-0.09766-0.05859c-0.14453-0.08594-0.28906-0.17578-0.42188-0.26953l-0.09375-0.05859c-0.0078-0.0039-0.08594-0.05859-0.09375-0.06641-0.11719-0.07422-0.23047-0.14844-0.33984-0.21875-0.24219-0.17188-0.48047-0.35156-0.75781-0.57031l-0.10938-0.08984c-2.5781-2.0586-4.4844-4.8086-5.3789-7.7578-0.83203-2.707-0.21484-6.25 1.6523-9.4766 0.24219-0.41797 0.15234-0.94922-0.21875-1.2617-0.18359-0.15625-0.41016-0.23828-0.63672-0.23828zm-11.004 3c-0.23828 0-0.48047 0.085938-0.67188 0.25781-1.9102 1.7148-3.3398 3.9375-3.4961 4.1914-4.0859 5.9492-3.2969 15.195-0.49219 20.848 0.054688 0.11719 0.11328 0.23047 0.17188 0.34375l0.039063 0.0625c0.050781 0.11328 0.10938 0.23047 0.12891 0.25391 0.03125 0.07422 0.078125 0.15625 0.097656 0.17969 0.046875 0.09766 0.09375 0.18359 0.17969 0.33203l0.32031 0.55078c0.046875 0.07422 0.09375 0.15234 0.10938 0.17969 0.0625 0.10156 0.12891 0.20703 0.19531 0.3125l0.15625 0.25c0.046875 0.07422 0.09375 0.14062 0.125 0.17969 0.15625 0.24219 0.3125 0.48438 0.48438 0.71484 0.00781 0.01172 0.015625 0.01953 0.023437 0.02734l0.0625 0.08594c0.14062 0.20312 0.28516 0.39844 0.41406 0.55859l0.57031 0.72266c0.00781 0.0078 0.070313 0.08203 0.074219 0.08984l0.082031 0.09375c0.17188 0.21094 0.35547 0.42188 0.53906 0.625 0.027343 0.03125 0.054687 0.05859 0.082031 0.08984 0.17578 0.19141 0.35547 0.38281 0.54297 0.58203l0.17969 0.17188c0.14844 0.15625 0.29688 0.30859 0.45312 0.45312 0 0.0039 0.07422 0.07422 0.07422 0.07422l0.15625 0.14453c0.1875 0.17969 0.38281 0.35938 0.53125 0.48438 0.0078 0.01172 0.14844 0.13281 0.16016 0.14062 0.18359 0.16406 0.36719 0.32031 0.55469 0.47266l0.95703 0.75781c0.16016 0.11719 0.32422 0.23438 0.51172 0.37109 0.0625 0.04687 0.12891 0.09375 0.19531 0.13672 0.02734 0.02344 0.05859 0.04687 0.07813 0.05859l0.71875 0.48047c0.26172 0.17188 0.52344 0.33203 0.84375 0.52344l0.17188 0.09766c0.19922 0.11719 0.40234 0.23438 0.59375 0.33594 0.11328 0.0625 0.22656 0.11719 0.32422 0.16797 0.13672 0.07422 0.28516 0.15625 0.51172 0.26562 0.01953 0.01172 0.17969 0.08984 0.19922 0.09766 0.22656 0.11328 0.45703 0.21875 0.74609 0.34766 0 0.0039 0.09375 0.04687 0.09375 0.04687 0.26562 0.11328 0.52344 0.22266 0.86328 0.35938 0.05469 0.02344 0.10938 0.04297 0.12109 0.04687 0.24219 0.09375 0.49609 0.1875 0.70312 0.26172 0.01953 0.0078 0.125 0.05078 0.14453 0.05859 0.27734 0.09375 0.55078 0.18359 0.90234 0.29297 0.05859 0.01953 0.12109 0.03906 0.12891 0.03906l0.19922 0.0625c0.24219 0.07422 0.48438 0.15234 0.74609 0.20312 1.8594 0.33986 3.6758 0.51565 5.3945 0.51565h0.0039c14.324 0 18.887-11.527 18.934-11.645 0.17578-0.46484-0.015625-0.98828-0.45312-1.2305-0.42969-0.23828-0.97656-0.125-1.2812 0.26953-3.6758 4.8398-10.609 6.6367-18.547 4.8125-0.19141-0.046875-0.38672-0.10156-0.57812-0.16016l-0.375-0.11328c-0.25391-0.07813-0.50781-0.16406-0.75391-0.25-0.0039 0-0.11719-0.04297-0.11719-0.04297-0.21875-0.07422-0.4375-0.16016-0.62891-0.23438l-0.21875-0.08594c-0.24219-0.097653-0.48438-0.19922-0.71875-0.30468l-0.13672-0.05859c-0.21094-0.09766-0.41406-0.19141-0.61719-0.29297-0.01563-0.0078-0.17578-0.08594-0.19141-0.08984-0.14062-0.07031-0.28125-0.14453-0.46094-0.24219l-0.81641-0.4375c-0.08203-0.05469-0.16797-0.10547-0.25-0.14844-0.24609-0.15234-0.5-0.30469-0.75-0.46484-0.05859-0.03516-0.10938-0.07422-0.20703-0.14062-0.17188-0.10938-0.33984-0.22266-0.58594-0.39454l-0.09766-0.07031c-0.16797-0.11719-0.33203-0.24219-0.46875-0.34375-0.08594-0.0625-0.17188-0.13281-0.3125-0.23828-0.125-0.09766-0.25-0.19141-0.36719-0.28516l-0.21875-0.17969c-0.18359-0.14844-0.35546-0.30469-0.53515-0.45703-0.02344-0.02344-0.04297-0.03906-0.07031-0.05859-0.19922-0.18359-0.40234-0.36719-0.64453-0.59766l-0.70703-0.70313c-0.17188-0.17578-0.34375-0.35547-0.53906-0.57031-0.17969-0.19922-0.35156-0.39844-0.58203-0.67188l-0.42188-0.51562c-0.050781-0.074219-0.10547-0.14844-0.17188-0.22656-0.14453-0.19531-0.28906-0.38672-0.43359-0.58984-3.8906-5.3594-4.9062-16.547-1.875-20.645 0.30469-0.41016 0.25-0.98828-0.13281-1.3359-0.1875-0.17188-0.42969-0.25781-0.66797-0.25781z" fill="url(#linearGradient3025)" stroke-width=".75564"/>
  </g>
 </g>
</svg>
