<?xml version="1.0" encoding="UTF-8"?>
<svg width="17.145mm" height="19.05mm" version="1.1" viewBox="0 0 17.145 19.05" xmlns="http://www.w3.org/2000/svg" xmlns:cc="http://creativecommons.org/ns#" xmlns:dc="http://purl.org/dc/elements/1.1/" xmlns:osb="http://www.openswatchbook.org/uri/2009/osb" xmlns:rdf="http://www.w3.org/1999/02/22-rdf-syntax-ns#" xmlns:xlink="http://www.w3.org/1999/xlink">
 <defs>
  <linearGradient id="linearGradient3021" x1="6" x2="42" y1="24" y2="24" gradientUnits="userSpaceOnUse">
   <stop stop-color="#666" offset="0"/>
   <stop stop-color="#404040" offset="1"/>
  </linearGradient>
 </defs>
 <metadata>
  <rdf:RDF>
   <cc:Work rdf:about="">
    <dc:format>image/svg+xml</dc:format>
    <dc:type rdf:resource="http://purl.org/dc/dcmitype/StillImage"/>
    <dc:title/>
   </cc:Work>
  </rdf:RDF>
 </metadata>
 <g transform="translate(-88.476 -93.115)">
  <g transform="matrix(.47625 0 0 .47625 85.618 91.21)" stroke-width=".12415">
   <path d="m42 17.3c0 20.5-18 26.7-18 26.7s-18-6.2-18-26.7c0-2.5 0.2-4.6 0.4-6.3 0.3-2.5 2-4.5 4.4-5.1 3.1-0.9 8-1.9 13.2-1.9s10.1 1 13.3 1.9c2.4 0.6 4.1 2.7 4.4 5.1 0.1 1.7 0.3 3.9 0.3 6.3z" fill="none"/>
   <path d="m24 7c4.9 0 9.5 1 12.5 1.8 1.2 0.3 2 1.3 2.2 2.6 0.2 1.9 0.3 3.9 0.3 5.9 0 15.6-11.5 21.9-15 23.4-3.5-1.6-15-7.9-15-23.4 0-2 0.1-4 0.3-5.9 0.1-1.3 1-2.3 2.2-2.6 3-0.8 7.6-1.8 12.5-1.8m0-3c-5.2 0-10.1 1-13.3 1.9-2.3 0.6-4.1 2.7-4.3 5.1-0.2 1.7-0.4 3.9-0.4 6.3 0 20.5 18 26.7 18 26.7s18-6.2 18-26.7c0-2.5-0.2-4.6-0.4-6.3-0.3-2.5-2-4.5-4.4-5.1-3.1-0.9-8-1.9-13.2-1.9z" fill="url(#linearGradient3021)"/>
   <path d="m23 28h2v8h-2z" fill="#808080"/>
   <path d="m24 10s-6 5-6 13c0 5.2 3.3 8.5 5 10l1-3 1 3c1.7-1.5 5-4.8 5-10 0-8-6-13-6-13z" fill="#595959"/>
   <path d="m24 10s-6 5-6 13c0 5.2 3.3 8.5 5 10l1-3z" fill="#404040"/>
  </g>
 </g>
</svg>
