<?xml version="1.0" encoding="UTF-8"?>
<svg width="26.458mm" height="17.361mm" version="1.1" viewBox="0 0 26.458 17.361" xmlns="http://www.w3.org/2000/svg" xmlns:cc="http://creativecommons.org/ns#" xmlns:dc="http://purl.org/dc/elements/1.1/" xmlns:osb="http://www.openswatchbook.org/uri/2009/osb" xmlns:rdf="http://www.w3.org/1999/02/22-rdf-syntax-ns#">
 <metadata>
  <rdf:RDF>
   <cc:Work rdf:about="">
    <dc:format>image/svg+xml</dc:format>
    <dc:type rdf:resource="http://purl.org/dc/dcmitype/StillImage"/>
    <dc:title/>
   </cc:Work>
  </rdf:RDF>
 </metadata>
 <g transform="translate(-54.458 -102.39)">
  <g transform="matrix(.051712 0 0 .051712 54.458 97.239)" stroke-width="5.1164">
   <path d="m470.2 266.46 37.564 21.692-37.564 21.692-57.637-33.28v-66.56l57.637-33.28 34.931 20.177c3.5 14.764 5.705 30.02 6.51 45.641l-21.358 12.33v-23.186l-20.083-11.588-20.083 11.588v23.186z" fill="#595959"/>
   <polygon points="459.01 236.82 459.01 249.74 470.2 256.2 481.39 249.74 481.39 236.82 470.2 230.36" fill="#666"/>
   <path d="m100.69 210v87.771l-38.442-21.932v-44.993l-19.194-11.087-19.195 11.086v44.993l-21.828 12.456c-1.337-10.575-2.027-21.358-2.027-32.298 0-20.041 2.299-39.549 6.656-58.264l36.394-21.013z" fill="#595959"/>
   <polygon points="243.2 210 185.55 176.72 127.91 210 127.91 276.56 185.55 309.84 243.2 276.56" fill="#404040"/>
   <rect transform="matrix(.5 .866 -.866 .5 303.46 -39.05)" x="127.91" y="210" width="115.28" height="66.557" fill="#666"/>
   <polygon points="147.7 244.28 127.91 210 127.91 276.56" fill="#525252"/>
   <polygon points="243.2 210 185.55 176.72 223.98 243.28" fill="#525252"/>
   <path d="m346.55 99.579v88.304l-19.32-11.16-57.647 33.28v66.56l57.647 33.28 57.637-33.28v-156.47zm-0.105 154.79-19.216 11.097-19.216-11.097v-22.183l19.216-11.097 19.216 11.097z" fill="#595959"/>
   <path d="m282.15 358.72s-1.132-9.729-11.539-9.729c-10.408 0-17.534 1.357-17.534 7.127s20.25 5.77 27.943 8.032 14.48 8.145 11.086 18.553-13.802 11.539-29.866 11.539-19.685-13.35-19.685-18.553h9.05s-1.132 8.145 9.502 9.502 20.802 2.121 22.173-6.108c1.81-10.861-34.391-5.43-37.559-16.064-2.676-8.985-1.132-20.815 16.969-22.626s28.056 6.181 28.056 18.101z" fill="#4d4d4d"/>
   <path d="m194.72 401.13 20.008 11.551c10.053 5.804 22.619-1.451 22.619-13.059v-57.495h-8.155v55.227c0 6.339-6.862 10.302-12.353 7.131l-13.965-8.062v-58.94l51.043-29.467 51.043 29.467v58.94l-51.043 29.467-14.704-8.489-9.602 3.872 24.305 14.033 59.198-34.179v-68.351l-59.197-34.177-59.198 34.179v68.352z" fill="#666"/>
  </g>
 </g>
</svg>
