<?xml version="1.0" encoding="UTF-8"?>
<svg width="19.43mm" height="18.521mm" version="1.1" viewBox="0 0 19.43 18.521" xmlns="http://www.w3.org/2000/svg" xmlns:cc="http://creativecommons.org/ns#" xmlns:dc="http://purl.org/dc/elements/1.1/" xmlns:osb="http://www.openswatchbook.org/uri/2009/osb" xmlns:rdf="http://www.w3.org/1999/02/22-rdf-syntax-ns#" xmlns:xlink="http://www.w3.org/1999/xlink">
 <defs>
  <linearGradient id="linearGradient4057" osb:paint="gradient">
   <stop stop-color="#666" offset="0"/>
   <stop stop-color="#404040" offset="1"/>
  </linearGradient>
  <linearGradient id="linearGradient3019" x1="3.0208" x2="44.98" y1="23.998" y2="23.998" gradientUnits="userSpaceOnUse" xlink:href="#linearGradient4057"/>
 </defs>
 <metadata>
  <rdf:RDF>
   <cc:Work rdf:about="">
    <dc:format>image/svg+xml</dc:format>
    <dc:type rdf:resource="http://purl.org/dc/dcmitype/StillImage"/>
    <dc:title/>
   </cc:Work>
  </rdf:RDF>
 </metadata>
 <g transform="translate(-99.963 -98.464)">
  <g transform="matrix(.46307 0 0 .46307 98.564 96.612)" fill="url(#linearGradient3019)" stroke-width=".57137">
   <path d="m23 4c-6.617 0-12 7.27-12 16.205 0 4.834 1.582 9.169 4.078 12.136-0.048 0.213-0.078 0.432-0.078 0.659 0 1.657 1.343 3 3 3s3-1.343 3-3-1.343-3-3-3c-0.315 0-0.612 0.062-0.897 0.152-1.897-2.421-3.103-5.977-3.103-9.947 0-7.281 4.037-13.205 9-13.205 3.837 0 7.111 3.547 8.404 8.518 1.122 0.346 2.237 0.782 3.33 1.308-1.155-7.318-5.975-12.826-11.734-12.826z"/>
   <path d="m35.507 20.084c-3.947-2.392-8.374-3.442-12.182-2.959-0.55-0.681-1.382-1.125-2.325-1.125-1.657 0-3 1.343-3 3s1.343 3 3 3c1.272 0 2.353-0.795 2.789-1.912 3.118-0.379 6.812 0.531 10.163 2.563 6.403 3.881 9.67 10.569 7.282 14.911-0.827 1.504-2.286 2.572-4.218 3.09-2.286 0.611-5.007 0.394-7.727-0.528-0.839 0.772-1.749 1.498-2.725 2.168 2.552 1.117 5.196 1.704 7.669 1.704 1.24 0 2.438-0.147 3.559-0.447 2.741-0.733 4.841-2.304 6.071-4.542 3.153-5.731-0.596-14.22-8.356-18.923z"/>
   <path d="m35 28.992c0-1.652-1.343-2.992-3-2.992s-3 1.34-3 2.992c0 0.669 0.228 1.281 0.6 1.779-1.279 2.802-3.744 5.567-7.062 7.578-3.865 2.344-8.185 3.202-11.555 2.302-1.932-0.518-3.391-1.586-4.218-3.09-1.702-3.094-0.521-7.376 2.61-10.988-0.323-1.144-0.562-2.34-0.706-3.575-5.07 4.797-7.109 11.323-4.532 16.009 1.23 2.238 3.33 3.809 6.071 4.542 1.121 0.3 2.318 0.447 3.559 0.447 3.346 0 7.007-1.068 10.326-3.08 3.836-2.325 6.683-5.577 8.209-8.962 1.513-0.153 2.698-1.413 2.698-2.962z"/>
  </g>
 </g>
</svg>
