<?xml version="1.0" encoding="UTF-8"?>
<svg width="15.426mm" height="10.855mm" version="1.1" viewBox="0 0 15.426 10.855" xmlns="http://www.w3.org/2000/svg" xmlns:cc="http://creativecommons.org/ns#" xmlns:dc="http://purl.org/dc/elements/1.1/" xmlns:osb="http://www.openswatchbook.org/uri/2009/osb" xmlns:rdf="http://www.w3.org/1999/02/22-rdf-syntax-ns#" xmlns:xlink="http://www.w3.org/1999/xlink">
 <defs>
  <linearGradient id="linearGradient4057" osb:paint="gradient">
   <stop stop-color="#666" offset="0"/>
   <stop stop-color="#404040" offset="1"/>
  </linearGradient>
  <linearGradient id="linearGradient3031" x1="15" x2="42.001" y1="32.5" y2="32.5" gradientUnits="userSpaceOnUse" xlink:href="#linearGradient4057"/>
 </defs>
 <metadata>
  <rdf:RDF>
   <cc:Work rdf:about="">
    <dc:format>image/svg+xml</dc:format>
    <dc:type rdf:resource="http://purl.org/dc/dcmitype/StillImage"/>
    <dc:title/>
   </cc:Work>
  </rdf:RDF>
 </metadata>
 <g transform="translate(-94.514 -92.466)">
  <g transform="matrix(.57132 0 0 .57132 85.945 79.326)" fill="url(#linearGradient3031)" stroke-width=".46311">
   <polygon points="15 23 15 26.445 20 26.445 20 42 24 42 24 26.445 29 26.445 29 23"/>
   <path d="m34.209 28.15c0-1.083 0.769-2.096 2.9-2.096s4.018 1.258 4.018 1.258l0.14-3.704s-11.25-3.075-11.25 4.717c0 5.73 7.721 5.73 7.721 8.315 0 0.245 0.105 2.026-2.62 2.026s-4.996-1.712-4.996-1.712v4.158s11.879 3.843 11.879-4.822c-1e-3 -5.625-7.792-5.345-7.792-8.14z"/>
  </g>
 </g>
</svg>
