<?xml version="1.0" encoding="UTF-8"?>
<svg width="30.634mm" height="51.315mm" version="1.1" viewBox="0 0 30.634 51.315" xmlns="http://www.w3.org/2000/svg" xmlns:cc="http://creativecommons.org/ns#" xmlns:dc="http://purl.org/dc/elements/1.1/" xmlns:rdf="http://www.w3.org/1999/02/22-rdf-syntax-ns#">
 <metadata>
  <rdf:RDF>
   <cc:Work rdf:about="">
    <dc:format>image/svg+xml</dc:format>
    <dc:type rdf:resource="http://purl.org/dc/dcmitype/StillImage"/>
    <dc:title/>
   </cc:Work>
  </rdf:RDF>
 </metadata>
 <g transform="translate(-87.492 -78.664)">
  <g transform="matrix(.38192 .026222 -.026222 .38192 -491.99 -86.345)" fill="#fff" stroke-width=".26458">
   <path d="m1569.3 456.4c-0.2212-0.25466-4.0097-5.8072-8.4189-12.339l-8.0167-11.876-2.0491 0.15802c-1.6081 0.124-2.1175 0.0758-2.3662-0.22392-0.4254-0.51253 0.1338-10.956 0.6112-11.413 1.784-1.7115 15.02-6.4853 19.688-7.101 0.698-0.0921 1.5811-0.22532 1.9624-0.29614l0.6933-0.12876-1.2787-3.2381c-8.306-21.034-7.9064-54.026 0.8406-69.395 0.4242-0.74532 0.7713-1.4484 0.7713-1.5624 0-0.3699-1.1124 0.78324-1.3468 1.3961-0.126 0.32958-0.4528 0.59531-0.7321 0.59531-0.2927 0-1.53 1.0728-2.9483 2.5564l-2.4439 2.5564 1.0897 0.90516c1.8154 1.508 1.2663 2.5162-0.6291 1.155-1.4438-1.0369-1.2267-1.107-2.6206 0.84638-3.6922 5.1741-4.4795 7.0606-3.2012 7.6702 0.6061 0.28903 0.926 0.62589 0.926 0.97504 0 0.6451-0.5322 0.68231-1.631 0.11406-1.0367-0.53611-1.0331-0.54071-2.4224 3.0652-1.4891 3.8648-1.6826 4.7101-1.127 4.9233 0.6879 0.26398 0.5201 1.1621-0.2172 1.1621-0.5405 0-0.6781 0.18698-0.9247 1.2568-0.5156 2.2376-1.0305 5.6966-1.2209 8.2021l-0.1859 2.4474h1.3354c0.7345 0 1.4122 0.12428 1.5061 0.27617 0.3372 0.54563-0.459 1.0468-1.6632 1.0468h-1.1943l0.1874 2.8443c0.1874 2.8452 0.9442 7.7892 1.4782 9.6573l0.2836 0.99219h3.2792c3.3132 0 3.9329 0.17603 3.3008 0.93763-0.244 0.29411-1.0008 0.38528-3.1977 0.38528-2.4106 0-2.8781 0.066-2.8781 0.40599 0 1.0406 2.9232 7.8078 4.7081 10.899l0.9515 1.648 3.2841-1.7141c3.2897-1.7171 4.2855-2.0307 4.2855-1.3497 0 0.51735-0.3791 0.78258-3.6089 2.5251-3.3461 1.8053-3.3097 1.686-1.3194 4.3305 1.5898 2.1124 1.7172 2.4252 1.0859 2.6675-0.4982 0.19116-1.0498-0.35062-2.7826-2.733-0.7452-1.0246-1.39-1.8629-1.4329-1.8629-0.043 0-1.4717 0.65484-3.1751 1.4552-3.4204 1.6072-3.8482 1.7084-3.8482 0.9104 0-0.43363 0.6209-0.84341 3.0427-2.0079 1.6735-0.8047 3.0427-1.5588 3.0427-1.6757 0-0.11696-0.7611-1.6839-1.6914-3.4822-1.3421-2.5945-3.5355-7.8771-4.0047-9.6452-0.042-0.15963-0.8334-0.36087-1.7578-0.44719-2.1407-0.19991-2.6003-0.38402-2.6003-1.0418 0-0.50135 0.1123-0.52142 1.9527-0.34897l1.9526 0.18298-0.4814-2.0206c-0.6045-2.5375-1.3072-7.8882-1.3072-9.9542 0-1.4899-0.03-1.5615-0.5953-1.4335-3.2193 0.72884-5.7547 0.66671-5.7547-0.14101 0-0.52347 0.3642-0.62362 3.3073-0.90927 3.1991-0.31052 2.8956 0.0431 3.2448-3.7802 0.1689-1.8502 0.5564-4.6016 0.8609-6.1142 0.6211-3.0844 0.6465-3.0143-1.338-3.6869-1.0846-0.36762-1.4659-0.6322-1.5294-1.0612-0.1091-0.73751 0.5334-0.75061 2.3811-0.0486 0.7569 0.28759 1.4022 0.49595 1.434 0.46302 0.032-0.0329 0.3159-0.83377 0.6312-1.7797 0.3153-0.94588 0.9951-2.7673 1.5106-4.0476s0.8934-2.3662 0.8398-2.413c-0.054-0.0468-1.9132-1.0014-4.1324-2.1212-3.1116-1.5701-4.0349-2.1532-4.0349-2.5479 0-0.74886 0.8843-0.65031 2.5098 0.2797 0.7609 0.43537 2.5318 1.3245 3.9352 1.9759l2.5517 1.1843 0.7998-1.5843c0.4398-0.87136 1.6765-2.8817 2.7481-4.4674l1.9485-2.8831-0.6263-0.54451c-1.0992-0.95576-0.3809-1.7036 0.9359-0.97437 0.5911 0.32739 5.2958-3.8783 5.7919-5.1777 0.049-0.12883-2.5999-2.8852-5.887-6.1252-3.287-3.24-5.9764-6.0958-5.9764-6.3463 0-0.86706 1.2142-0.53644 2.0898 0.56904 0.4462 0.56341 3.1254 3.2477 5.9537 5.9652l5.1424 4.9408 2.1126-1.7056c3.7877-3.058 4.0254-3.1504 7.371-2.8664 3.8911 0.33037 5.698-0.92829 7.8288-5.4535 0.784-1.665 1.5249-2.1129 1.7303-1.046 0.1487 0.77208-1.4695 3.6883-3.0001 5.4066l-1.4547 1.633 1.5251 0.31199c0.8388 0.17159 2.9964 0.79814 4.7946 1.3923l3.2696 1.0804 2.734-1.439c2.1076-1.1093 2.8062-1.3673 3.0494-1.126 0.5424 0.53807 0.1154 0.97301-2.125 2.1644l-2.1708 1.1545 1.9666 1.1209c2.3214 1.3231 4.1223 2.5202 5.7151 3.7991 0.9845 0.79054 1.2311 0.88164 1.6606 0.61342 1.4335-0.89522 8.2096-3.0147 8.8511-2.7685 1.2014 0.46102 0.2682 1.1283-2.6722 1.9107-5.74 1.5274-5.8986 1.7188-3.5056 4.2309 2.2078 2.3176 4.2624 4.9979 5.6508 7.3716 1.1799 2.0171 0.7779 2.0502 4.1995-0.34526 2.7436-1.9208 3.7243-2.2679 3.528-1.2487-0.049 0.25202-1.409 1.381-3.0233 2.509l-2.9351 2.0508 1.1642 2.9049c3.9881 9.9513 4.3002 21.692 0.8617 32.426-1.0087 3.1492-1.0792 2.9527 1.1374 3.1721 3.2464 0.32137 5.3432 0.96026 5.4424 1.6582 0.1012 0.71305-0.1163 0.73238-2.3833 0.21182-0.9185-0.21093-2.563-0.4613-3.6544-0.5564l-1.9844-0.1729-1.1702 2.7232c-1.0827 2.5195-1.1353 2.7442-0.7026 3.0038 2.1456 1.2873 4.7944 3.2762 4.8663 3.654 0.1641 0.86302-0.9415 0.49769-3.421-1.1305-1.3348-0.87643-2.4592-1.561-2.4988-1.5214-0.3722 0.3728-4.329 7.1926-4.2303 7.2912 0.072 0.0718 3.5027 0.80626 7.6243 1.6322 7.9864 1.6004 8.1313 1.6426 8.1313 2.3665 0 1.1495-7.7468 36.711-8.0691 37.041-0.8438 0.86372-45.853 4.7973-46.491 4.063zm23.793-2.9357c11.818-1.1278 21.574-2.1367 21.679-2.242 0.1684-0.16838 7.7856-35.44 7.6758-35.542-0.4173-0.39045-16.533-3.1735-17.902-3.0916-0.9459 0.0566-6.3037 0.33968-11.906 0.62915-24.37 1.2591-28.672 1.9658-38.012 6.2454l-4.5357 2.0782-0.1643 3.3073c-0.09 1.819-0.23 3.938-0.3103 4.7088l-0.146 1.4015 2.0232-0.0646c1.1445-0.0365 2.1015 0.0516 2.2034 0.20293 14.029 20.832 16.576 24.443 17.232 24.431 0.3716-7e-3 10.345-0.93535 22.164-2.0632zm-15.27-40.742 2.2489-0.17781-0.06-0.79321c-0.033-0.43627-0.3004-3.1745-0.5945-6.0849-0.6678-6.6078-2.124-28.544-2.124-31.997v-0.64882l-1.1245 0.64293c-2.13 1.2179-4.888 0.78022-6.4753-1.0276-3.6655-4.1748 0.9006-10.41 5.9462-8.1198 1.0348 0.46972 1.1243 0.47453 1.1223 0.0603-1e-3 -0.24755-0.178-2.8313-0.3931-5.7418-0.2151-2.9104-0.3927-5.5647-0.3948-5.8983 0-0.35044-0.5065-1.1442-1.1943-1.8795-1.7346-1.8544-1.5468-3.3426 0.2121-1.681l0.7702 0.72761-0.1974-2.5135c-0.1085-1.3824-0.27-4.359-0.3589-6.6146l-0.1614-4.101-0.9887 1.3229c-10.274 13.747-11.53 49.098-2.5445 71.614l1.3375 3.3516 1.3624-0.13159c0.7493-0.0724 2.3745-0.2116 3.6114-0.3094zm11.052-0.7034c0.039-0.0314 0.301-1.6521 0.5817-3.6016 2.1344-14.824 2.1707-35.443 0.063-35.789-4.8791-0.80106-5.8344-8.6967-1.1932-9.8616 0.3351-0.0841 0.6083-0.34838 0.6072-0.58727 0-0.92155-1.026-4.6576-1.2984-4.7484-0.1579-0.0526-0.287-0.50068-0.287-0.99571 0-0.84197-1.2942-5.0772-2.2417-7.336l-0.4212-1.0041-0.7599 0.5411c-1.5961 1.1365-2.4661 0.34851-0.9866-0.89358 0.5334-0.44785 0.9698-0.98079 0.9698-1.1843 0-0.94457-4.3763-7.9643-4.9651-7.9643-0.156 0-1.8286 1.027-2.3971 1.4719-0.1024 0.0801 0.4318 9.021 0.6342 10.615 0.1277 1.0058 0.3186 1.2433 2.0912 2.6009 1.888 1.4461 2.3918 2.021 2.0609 2.3518-0.3587 0.35869-1.0245 0.1003-2.3812-0.92403-0.7884-0.5952-1.468-1.0417-1.5102-0.99219-0.1213 0.14198 0.602 10.443 0.898 12.79 0.1468 1.1642 0.3232 4.53 0.392 7.4795 0.1312 5.622 0.1708 5.882 0.8959 5.882 0.2475 0 0.5916 0.22692 0.7648 0.50426 1.1483 1.8386 4.8499 1.0664 5.8012-1.2101 0.6874-1.6452 2.256-0.89447 1.6933 0.81048-0.9215 2.7922-4.8919 4.0924-7.6493 2.5048-0.4913-0.28286-0.9525-0.45505-1.0249-0.38264-0.325 0.32501 1.5576 25.433 2.1992 29.33l0.1642 0.99769 3.6139-0.17418c1.9876-0.0958 3.6459-0.19984 3.6851-0.2312zm6.2042-0.30781 2.5714-0.17029 0.8393-2.0112c10.146-24.314 6.4294-54.224-8.3054-66.836l-1.0934-0.93589-0.5556 1.7147c-0.5381 1.6606-1.0195 2.4276-2.1014 3.3479-0.5819 0.495-0.6839 0.0209 1.1196 5.2057 0.5701 1.639 1.0896 3.0331 1.1544 3.098 0.065 0.0648 1.2821-0.77972 2.7049-1.8768 2.4666-1.902 3.3438-2.2448 3.3438-1.3069 0 0.21855-1.258 1.3686-2.7957 2.5556-3.177 2.4526-3.0075 1.9519-2.0051 5.9219 0.4627 1.8328 0.4742 1.8484 1.5207 2.0553 4.6386 0.91731 5.4467 7.9498 1.1196 9.7421-0.6505 0.26943-0.7512 0.43247-0.6249 1.0114 0.3447 1.5795 0.5829 12.928 0.3776 17.99-0.2833 6.9833-1.392 18.276-1.9837 20.204-0.1647 0.53667 0.4334 0.57346 4.7139 0.29zm10.087-0.52382c1.2834-0.1759 2.224-1.3429 5.0213-6.2294 0.8629-1.5074 0.8646-1.5404 0.079-1.5404-1.7565 0-1.4313-1.2472 0.3579-1.3724l1.184-0.0829 1.0337-2.3593c0.9668-2.2067 1.0036-2.3813 0.5687-2.6993-0.5886-0.43038-0.3508-1.0914 0.4333-1.2048 1.1768-0.1701 3.1545-7.8417 3.7281-14.461 0.6223-7.1821-0.8705-16.268-3.5395-21.542-0.6378-1.2606-0.6074-1.2657-2.7712 0.46145-1.8866 1.5059-2.2984 1.6374-2.4247 0.7746-0.053-0.36142 0.5018-0.95891 1.9182-2.0663 2.3299-1.8215 2.2355-1.508 1.0498-3.4848-2.8304-4.7192-7.4492-9.7661-8.2633-9.0293-1.0504 0.95058-1.9147 0.15559-0.9681-0.89042 0.566-0.62545-2.4487-2.943-6.644-5.1075-2.2332-1.1522-2.4512-1.166-4.1141-0.26094-1.5449 0.84083-1.5392 0.8082-0.3422 1.9566 6.8838 6.604 12.295 18.041 13.642 28.835 0.3852 3.0871 0.3292 3.0634 2.7998 1.1811 2.0308-1.5472 2.7164-1.782 2.7164-0.9299 0 0.549-2.1978 2.4536-4.0562 3.5151l-1.0135 0.5789 0.1788 2.6513c0.5879 8.7178-2.0451 22.896-5.9379 31.976-0.3016 0.70329-0.5483 1.3284-0.5483 1.3891 0 0.17316 4.5525 0.12903 5.9119-0.0573zm4.3187-25.409c-0.4964-0.49638 0.031-0.98238 2.1096-1.9425 2.3697-1.0948 3.5348-1.3228 3.5348-0.69164 0 0.53856-0.4515 0.83203-2.8782 1.8707-2.3279 0.9964-2.4888 1.0408-2.7662 0.76343zm-22.643-41.409c0.1312-0.24329 0.4079-1.1684 0.6149-2.0558l0.3764-1.6134-1.4992-1.0169c-3.1584-2.1424-4.9617-2.8762-5.7148-2.3255-0.4503 0.32923-0.4021 0.45782 0.7672 2.0461 0.6862 0.93214 1.8464 2.8055 2.5782 4.163l1.3305 2.4682 0.6541-0.61169c0.3598-0.33643 0.7615-0.81075 0.8927-1.054zm3.7805-5.1365c0.6732-0.37624 1.224-0.72996 1.224-0.78605 0-0.19435-5.1791-1.7099-7.0829-2.0727-2.3088-0.43991-2.3425-0.38776-0.3916 0.60582 0.8368 0.42614 2.1762 1.2511 2.9766 1.8332 1.7559 1.2772 1.7426 1.2755 3.2739 0.41964zm-13.229-1.296c0.5748-0.43523 0.4308-1.0342-0.3489-1.4515-0.5073-0.27151-0.5441-0.21899-0.5441 0.77644 0 1.154 0.1304 1.2526 0.893 0.67506z"/>
   <path d="m1568.7 455.21c-0.6529-0.91417-4.4477-6.4842-8.4328-12.378l-7.2457-10.716h-4.4427l0.062-4.4979c0.034-2.4738 0.1327-5.016 0.2186-5.6493l0.1563-1.1513 3.3532-1.5871c6.4636-3.0594 11.486-4.6977 17.244-5.6251 1.0914-0.17579 1.9562-0.42856 1.9217-0.56172-0.034-0.13315-0.6064-1.5931-1.2711-3.2442-8.5535-21.249-7.7508-55.61 1.647-70.497 0.3581-0.56721 0.5935-1.0888 0.5231-1.1592-0.2055-0.20557-2.2915 1.7907-2.2915 2.193 0 0.20135-0.2236 0.36609-0.4968 0.36609-0.284 0-1.6028 1.1524-3.0803 2.6917l-2.5835 2.6917 1.1 0.94631c1.6864 1.4508 1.4753 2.1445-0.2879 0.9463-1.6128-1.0959-2.2029-0.54602-5.5906 5.2103-1.7628 2.9952-1.7643 3.0048-0.5703 3.5742 0.9448 0.45054 1.2564 1.1373 0.516 1.1373-0.2255 0-0.7662-0.1842-1.2016-0.40933l-0.7915-0.40933-0.7534 1.6661c-1.5418 3.4094-2.4767 6.644-2.0176 6.9797 0.6409 0.46862 0.524 1.2178-0.1746 1.1192-0.8181-0.11552-1.9386 5.2188-2.0945 9.9714l-0.061 1.8521 1.0856 0.0804c2.1221 0.15707 2.0752 1.0148-0.064 1.1672l-1.0583 0.0754 0.085 2.3812c0.1015 2.8403 0.6682 6.9759 1.3056 9.5292l0.4614 1.8479h3.0943c5.0263 0 5.1307 0.75814 0.1468 1.0659-1.5643 0.0966-2.8442 0.28164-2.8442 0.41119 0 1.482 5.3129 12.678 6.0162 12.678 0.2142 0 1.8557-0.77787 3.6478-1.7286 2.0706-1.0984 3.3227-1.6247 3.4346-1.4436 0.2921 0.47264-0.2252 0.85261-3.4183 2.5107-3.5932 1.866-3.4717 1.5106-1.4626 4.2758 1.4396 1.9815 1.7286 2.7357 1.0482 2.7357-0.1253 0-1.0143-1.0716-1.9756-2.3812-0.9612-1.3097-1.7972-2.3812-1.8577-2.3812-0.06 0-1.4442 0.65484-3.075 1.4552-3.1278 1.5351-3.6806 1.6954-3.6806 1.0678 0-0.23383 1.2062-0.96071 3.0428-1.8337 3.4815-1.6549 3.386-1.4643 1.9583-3.9089-1.3266-2.2715-3.0888-6.2278-4.0704-9.1385l-0.7324-2.1716-1.2236-0.16055c-2.0532-0.2694-2.6656-0.42027-2.8379-0.69909-0.3311-0.53572 0.3258-0.6966 1.8477-0.4525 1.9935 0.31976 1.9164 0.56594 1.1026-3.5214-0.3858-1.9378-0.7847-4.952-0.8864-6.6983l-0.185-3.175-1.0584 0.0129c-0.582 7e-3 -1.9927 0.11149-3.1347 0.23194-3.6379 0.38369-2.8112-0.63755 0.8873-1.0961 1.5271-0.18935 2.9067-0.39176 3.0656-0.44981 0.1709-0.0624 0.3608-1.3321 0.4645-3.1064 0.097-1.6505 0.47-4.4296 0.83-6.1759s0.657-3.2546 0.66-3.3519c0-0.0973-0.7684-0.4344-1.7143-0.74917-1.5434-0.5136-2.0189-0.93562-1.5653-1.3892 0.085-0.085 0.818 0.0738 1.6289 0.35278 2.0042 0.68954 2.0818 0.66897 2.4111-0.63894 0.1588-0.63042 0.8278-2.4876 1.4867-4.1271 0.6588-1.6395 1.1979-3.0279 1.1979-3.0855 0-0.0575-1.8157-1.0128-4.0348-2.1229-2.2192-1.1101-4.1193-2.1516-4.2224-2.3146-0.5654-0.8936 0.6715-0.5246 4.251 1.2681 4.258 2.1325 4.6465 2.2556 4.9148 1.5564 0.307-0.80004 3.0334-5.202 4.2298-6.8293l1.1672-1.5875-0.6813-0.71978c-0.7417-0.78372-0.2376-1.4251 0.5841-0.74318 0.6102 0.50643 0.926 0.28679 3.6671-2.5511 3.1317-3.2422 3.4401-2.336-2.8481-8.3693-5.0946-4.888-6.7124-6.6906-6.3396-7.0634 0.1454-0.14535 2.7088 2.1722 6.4464 5.8282 5.3541 5.2371 6.2641 6.0247 6.6359 5.743 0.237-0.17956 1.6708-1.2617 3.1861-2.4047l2.7553-2.0782 6.686 0.35148 1.749-1.7489c1.2084-1.2084 2.015-2.3155 2.6101-3.5824 0.849-1.8075 1.5226-2.3763 1.5226-1.2856 0 0.92578-1.55 3.5383-3.0653 5.1665-1.6143 1.7346-1.6121 1.7432 0.5518 2.1983 0.8731 0.1836 2.9869 0.7986 4.6974 1.3667l3.1099 1.0328 2.6566-1.3331c2.4655-1.2372 3.1621-1.4068 3.1621-0.76975 0 0.13799-1.012 0.75281-2.2489 1.3663-2.7298 1.3538-2.7225 1.2373-0.1625 2.6013 1.1476 0.61145 3.1889 1.9227 4.5362 2.914l2.4498 1.8022 1.2685-0.6428c2.0645-1.0462 7.6282-2.6305 7.9849-2.2739 0.4748 0.47481 0.01 0.72125-2.8108 1.4815-5.923 1.5979-6.0319 1.7347-3.4944 4.3907 2.1121 2.2107 4.1997 4.9308 5.8349 7.6028 1.1804 1.9288 0.8726 1.9608 4.3137-0.44809 1.4757-1.033 2.815-1.8782 2.9763-1.8782 0.8693 0-0.2028 1.1178-2.747 2.8643-3.264 2.2406-3.1294 1.8071-1.6595 5.3436 3.9232 9.439 4.1244 21.998 0.5269 32.885-0.8187 2.4775-1.0075 2.2441 2.1867 2.7036 3.6009 0.51799 4.6495 0.84169 4.5274 1.3976-0.054 0.24537-0.2695 0.40566-0.4792 0.3562-1.7485-0.41256-4.3877-0.81953-5.7519-0.88696l-1.6477-0.0815-1.1871 2.7415c-0.6529 1.5078-1.1871 2.7788-1.1871 2.8245 0 0.0457 1.1906 0.86313 2.6458 1.8166 1.4552 0.95347 2.6458 1.8553 2.6458 2.0042 0 0.58457-1.0224 0.19788-3.145-1.1895-2.6959-1.762-2.77-1.766-3.5744-0.19359-0.3536 0.69122-1.3082 2.3114-2.1211 3.6004-0.813 1.289-1.4782 2.4201-1.4782 2.5135 0 0.0934 3.5238 0.88427 7.8306 1.7574 9.5662 1.9394 8.9484-1.0014 4.327 20.599-4.6262 21.623-2.42 18.69-14.936 19.858-27.627 2.578-32.636 3.0515-33.796 3.1942l-1.2521 0.15411zm23.8-1.5364c22.096-2.074 22.318-2.0975 22.488-2.3714 0.2722-0.4404 7.5851-35.23 7.4687-35.531-0.074-0.19147-3.3454-0.96679-8.0066-1.8976l-7.8816-1.5738-9.4152 0.46863c-26.409 1.3144-32.877 2.1865-40.107 5.4068-8.1329 3.6226-7.1794 2.5487-7.419 8.3564l-0.1953 4.7342 1.8329-0.18061c2.3089-0.22751 1.2065-1.5248 10.949 12.885l8.0145 11.854 1.3464-0.15643c0.7405-0.086 10.157-0.98345 20.926-1.9942zm-13.163-40.916c1.0248-0.17438 1.0195-0.12003 0.473-4.8499-0.6922-5.991-1.6485-19.653-2.1297-30.427-0.088-1.9645-0.2134-3.8354-0.2793-4.1574l-0.1197-0.58557-0.9402 0.63802c-3.3206 2.2535-7.7858-0.17474-7.7858-4.234 0-3.6872 3.9476-6.0579 7.2682-4.365 1.3103 0.66806 1.2304 1.3672 0.7009-6.1365l-0.4608-6.53-1.2717-1.3596c-1.4678-1.5693-1.3728-2.6073 0.1089-1.1878 1.0622 1.0177 1.0725 0.98314 0.7912-2.6503-0.1348-1.7414-0.2479-4.6772-0.2513-6.524-0.01-3.7519-0.1546-4.0689-1.2664-2.7201-10.759 13.052-11.808 55.032-1.8645 74.569l0.5204 1.0224 2.8234-0.1779c1.553-0.0978 3.2105-0.24374 3.6834-0.32421zm8.6651-0.59056 1.0584-0.17111 0.33-1.978c1.3276-7.9571 2.0528-19.273 1.8053-28.172-0.2537-9.1217-0.2708-9.222-1.6062-9.4072-4.6248-0.64144-5.7909-6.8598-1.7226-9.1867 0.6564-0.37543 1.2299-0.70773 1.2743-0.73844 0.1274-0.0879-1.0477-4.9788-1.2671-5.2739-0.1082-0.14552-0.2752-0.77896-0.3712-1.4076-0.2544-1.6662-2.5414-7.7205-2.9165-7.7205-0.1758 0-0.5508 0.17481-0.8333 0.38846-1.4217 1.0754-1.8449 0.25302-0.4474-0.8696l0.9922-0.79705-0.8805-1.7888c-1.0636-2.161-3.2842-5.6649-4.0015-6.3141-0.5017-0.45401-0.5632-0.44372-1.7213 0.28793l-1.201 0.75878 2e-4 2.1167c2e-4 2.2876 0.4619 9.009 0.6635 9.6586 0.068 0.219 1.0178 1.0986 2.1107 1.9547 1.093 0.85608 1.9872 1.6521 1.9872 1.769 0 0.65533-0.7434 0.41807-2.1483-0.68562-0.8721-0.68518-1.6549-1.1766-1.7395-1.0919-0.1883 0.18836 0.378 9.5499 0.7545 12.472 0.15 1.1642 0.3091 4.2247 0.3536 6.8012 0.095 5.4697 0.2982 7.3758 0.7689 7.1952 0.179-0.0687 0.6501 0.17606 1.047 0.54389 1.8546 1.7188 5.0569 1.0758 6.0017-1.205 0.3446-0.83192 1.221-1.0482 1.4828-0.36599 1.062 2.7676-4.8469 5.1848-7.8372 3.206-0.5856-0.38757-1.0648-0.63665-1.0648-0.55351 0 4.1513 2.062 29.445 2.5045 30.722 0.1089 0.31428 4.3496 0.21928 6.6236-0.14839zm9.3065-0.4394c0.4527-0.0911 0.7996-0.69377 1.6277-2.8278 9.3055-23.98 6.8895-48.708-6.2369-63.836-2.118-2.4409-3.7202-3.7835-3.8801-3.2516-0.057 0.19033-0.2582 0.94136-0.4467 1.669-0.2376 0.91698-0.7078 1.7135-1.5323 2.5957l-1.1894 1.2727 0.4786 1.2408c0.2633 0.68244 0.8899 2.4314 1.3924 3.8866 0.5026 1.4552 0.9948 2.7237 1.0939 2.8189 0.099 0.0952 1.3402-0.7085 2.758-1.7859 1.4179-1.0774 2.6978-1.959 2.8443-1.959 0.8204 0-0.038 1.0048-2.3614 2.7644-3.2332 2.4485-3.0461 2.0978-2.4362 4.5664 0.2802 1.1341 0.5803 2.3749 0.667 2.7574 0.1265 0.55863 0.391 0.75421 1.3444 0.99427 4.7403 1.1936 5.2478 7.0627 0.8375 9.6874-0.4113 0.24478-0.4203 0.75294-0.1211 6.7907 0.4443 8.9628-0.1102 19.791-1.4987 29.267-0.6166 4.2082-0.9346 3.803 2.8426 3.621 1.7827-0.0859 3.5-0.20833 3.8164-0.27203zm6.2963-0.29035 2.8527-0.17455 1.3928-2.1406c0.766-1.1773 1.8304-2.9388 2.3653-3.9144l0.9727-1.7738-0.8775-0.22739c-1.3246-0.34324-1.1512-1.0047 0.2404-0.91728 1.0976 0.0689 1.1302 0.046 1.7878-1.2515 1.4167-2.7958 1.7314-3.8578 1.2775-4.3117-0.482-0.48203-0.256-0.98933 0.4407-0.98933 0.5324 0 0.9068-0.83694 1.8341-4.101 3.0819-10.847 2.5176-22.369-1.5583-31.816-0.7419-1.7196-0.7962-1.7184-3.0357 0.0661-1.9744 1.5734-2.2642 1.7009-2.2547 0.99219 0-0.25579 0.8436-1.1141 1.8771-1.9178 2.3895-1.858 2.3168-1.5367 0.8817-3.9005-3.2011-5.2728-7.7238-9.9807-8.4535-8.8-0.2268 0.36695-0.9261 0.33273-0.9261-0.0453 0-0.17045 0.1903-0.52011 0.4228-0.77704 0.5319-0.58778-2.7707-3.1525-6.6741-5.1829l-2.4256-1.2617-1.6352 0.78153c-2.1756 1.0399-2.187 0.88109 0.2514 3.5112 6.982 7.5308 11.289 17.336 12.84 29.234 0.2072 1.5892 0.3767 1.5768 2.7067-0.19844 1.9728-1.5031 2.4518-1.7161 2.4518-1.0902 0 0.40507-1.6118 1.7898-3.4396 2.955-0.6548 0.41746-1.2362 0.78971-1.2919 0.82721-0.056 0.0375-0.08 1.9474-0.055 4.2443 0.1145 10.38-2.0439 21.037-6.4586 31.891-0.2209 0.54301 0.048 0.5603 4.4908 0.28848zm6.0075-26.162c0.093-0.44491 4.6479-2.5762 5.0173-2.3478 0.5528 0.34162 0.082 0.74034-2.0261 1.714-2.4364 1.1256-3.1251 1.2715-2.9912 0.63379zm-22.728-40.735c0.1588-0.29104 0.4921-1.2816 0.7407-2.2011l0.4519-1.672-1.2279-0.90296c-2.5887-1.9035-5.5116-3.1438-6.2573-2.6551-0.7012 0.45942-0.8286 0.81305-0.3904 1.0838 0.4524 0.27961 2.7815 3.8648 3.6939 5.6859 1.3239 2.6426 1.8453 2.758 2.9891 0.66146zm3.7611-5.0838c2.1616-1.0602 1.603-1.4387-4.2307-2.8668-4.0901-1.0013-4.682-0.88542-2.2489 0.44018 1.0914 0.59462 2.6392 1.5454 3.4396 2.1129 1.7267 1.2244 1.2777 1.178 3.04 0.3137zm-12.565-2.0978c0-0.42101-1.3179-1.4517-1.6186-1.2659-0.2673 0.1652-0.3197 2.0553-0.064 2.311 0.2391 0.23915 1.6827-0.65743 1.6827-1.0451zm1.5875-0.8599c0-0.24357-0.6264-0.55747-1.1124-0.55747-0.1667 0-0.1454 0.15657 0.054 0.39687 0.3595 0.43312 1.0584 0.53917 1.0584 0.1606z"/>
   <path d="m1561.4 444.3-8.3344-12.351-2.0463 0.076c-1.1691 0.0434-2.1641-0.0418-2.3211-0.19885-0.3812-0.38113 0.1936-10.435 0.622-10.88 0.3804-0.39521 8.2904-4.0801 9.9973-4.6572 2.2604-0.76434 8.6087-2.3041 10.378-2.517 2.2626-0.27239 2.2282-0.19904 1.2227-2.6078-9.1531-21.926-8.5338-57.294 1.2623-72.097 0.3709-0.56042 0.6039-1.0894 0.5178-1.1755-0.2291-0.22913-2.5667 1.7549-2.5667 2.1785 0 0.19798-0.3002 0.4353-0.6671 0.52739-0.7017 0.17611-5.4184 5.0029-5.4184 5.5449 0 0.17324 0.416 0.59822 0.9243 0.9444s0.925 0.77825 0.926 0.96015c0 0.46328-0.1573 0.42147-1.2643-0.33073-1.4482-0.98414-1.2451-1.1082-3.4653 2.1167-3.4488 5.0095-3.9466 6.4219-2.5059 7.1089 0.6628 0.31607 0.8794 0.54548 0.6919 0.73298-0.1875 0.18749-0.5268 0.14164-1.0839-0.14648-1.1774-0.60885-1.2275-0.57829-2.0238 1.2342-1.8411 4.1908-2.5445 6.9092-1.8562 7.1733 0.5792 0.22226 0.4851 0.69807-0.138 0.69807-0.8922 0-1.5966 2.77-2.1546 8.4725-0.3743 3.8249-0.3308 3.9629 1.248 3.9629 1.6487 0 1.4503 0.63229-0.2329 0.7421l-1.2361 0.0807v1.4511c0 2.837 0.7597 8.2746 1.6138 11.551l0.2587 0.99219h3.3191c4.4041 0 4.5644 0.59435 0.214 0.79375-2.4058 0.11027-2.9002 0.20495-2.9696 0.56874-0.1969 1.0319 4.0104 10.624 5.4255 12.369l0.5143 0.63419 3.3685-1.787c3.1173-1.6537 3.9239-1.9369 3.4824-1.2224-0.095 0.15321-1.534 1.0038-3.1985 1.8901-3.7409 1.992-3.5997 1.6457-1.7102 4.194 0.8735 1.1782 1.5883 2.2605 1.5883 2.4052 0 0.67813-0.6634 0.0846-2.1457-1.9197-1.9861-2.6856-1.6441-2.6281-5.2609-0.88381-2.7116 1.3078-3.7076 1.5948-3.3119 0.95448 0.076-0.12292 1.5067-0.88156 3.1794-1.6859 1.6726-0.80431 3.0411-1.5331 3.0411-1.6195 0-0.0864-0.5507-1.1277-1.2238-2.3139-1.5728-2.7719-2.5612-4.956-3.802-8.4016-1.1069-3.074-1.0844-3.051-3.2889-3.3592-2.2869-0.31972-2.2683-0.88326 0.027-0.80776 1.4722 0.0484 1.7971-0.0139 1.7591-0.33747-0.026-0.21828-0.2989-1.647-0.6073-3.175-0.3083-1.528-0.7069-4.445-0.8857-6.4823-0.3248-3.7006-0.3257-3.7041-0.9802-3.6512-5.9951 0.48443-7.9746 0.14602-2.7555-0.47107 3.6591-0.43264 3.4195-0.1732 3.78-4.0923 0.1706-1.8536 0.5526-4.5602 0.849-6.0146 0.6824-3.3485 0.6873-3.332-1.1946-4.0338-0.867-0.32336-1.6211-0.72199-1.6757-0.88586-0.1475-0.44257 0.5539-0.36299 2.0709 0.23496 1.6679 0.65741 1.6705 0.6557 2.3839-1.528 0.3203-0.98069 0.9844-2.7667 1.4758-3.969 0.4913-1.2022 0.8933-2.3351 0.8933-2.5175 0-0.18237-1.8454-1.252-4.101-2.3771-3.5946-1.7929-4.7608-2.5768-3.8331-2.5768 0.1473 0 2.0579 0.89652 4.2458 1.9923 4.5937 2.3007 4.0706 2.3614 5.8077-0.67406 0.7477-1.3066 2.0055-3.276 2.7951-4.3766 1.6386-2.284 1.6418-2.2947 0.8402-2.8336-0.7902-0.53125-0.3949-0.89712 0.5193-0.4806 0.6974 0.31778 6.1486-4.6993 6.1587-5.6683 0-0.14676-2.6166-2.8842-5.8181-6.0832-5.1843-5.1803-6.3131-6.4823-5.6202-6.4823 0.1104 0 2.8776 2.6789 6.1494 5.9531 6.8424 6.8475 5.9372 6.3826 8.4667 4.3484 3.8217-3.0734 4.1053-3.2114 6.2177-3.0246 1.0186 0.0901 2.491 0.18624 3.272 0.21374l1.4199 0.05 1.9232-2.0384c1.2699-1.346 2.1298-2.5368 2.5314-3.5057 0.3345-0.80702 0.7728-1.4673 0.9742-1.4673 0.8814 0-0.8679 3.2557-2.9478 5.4866-0.8571 0.91926-1.512 1.7121-1.4552 1.7619 0.057 0.0498 1.0556 0.29928 2.2198 0.55442 1.1641 0.25514 3.2725 0.86605 4.6853 1.3576 3.1997 1.1132 2.9303 1.1271 5.7657-0.29695 2.4465-1.2287 2.9104-1.3768 2.9104-0.929 0 0.1439-0.9435 0.73602-2.0966 1.3158-2.6902 1.3526-2.7186 1.4297-0.8714 2.3622 1.4638 0.73889 5.4221 3.3286 6.9926 4.5748l0.7172 0.56917 1.7963-0.81959c1.8321-0.83592 6.1527-2.1787 7.0104-2.1787 1.0877 0 0.3451 0.54389-1.4438 1.0573-2.7261 0.78247-5.6195 1.8282-6.1678 2.2291-0.4265 0.31186-0.2388 0.58514 2.0973 3.0532 2.2089 2.3336 6.2533 7.8427 6.2533 8.5179 0 0.57753 1.0856 0.0717 3.4944-1.6283 2.5934-1.8302 3.2678-2.1661 3.0552-1.5214-0.089 0.26966-2.9509 2.4138-5.3343 3.9963-0.4929 0.32722-0.4732 0.42419 0.5892 2.9008 4.0446 9.4296 4.4921 20.913 1.2526 32.15-1.2129 4.2077-1.2722 3.918 0.8455 4.1354 2.334 0.23953 5.3091 0.90829 5.5137 1.2394 0.3154 0.51026-0.1415 0.5388-1.8332 0.11453-0.9419-0.23622-2.6947-0.4565-3.8951-0.48952l-2.1827-0.06-1.1344 2.5135c-1.4787 3.2764-1.5378 3.0632 1.3554 4.8923 1.3789 0.87175 2.5071 1.7477 2.5071 1.9465 0 0.47657-0.4694 0.27968-2.3204-0.97347-3.3645-2.2777-3.2033-2.3024-4.9015 0.74923-0.5263 0.94588-1.4356 2.4311-2.0204 3.3006-1.372 2.0394-1.8123 1.8141 6.9933 3.5786 4.1676 0.83514 7.7018 1.6429 7.8539 1.795 0.2443 0.24429-6.623 33.706-7.4869 36.48-0.2323 0.7461-0.3954 0.85428-1.5044 0.99764-1.3903 0.17974-39.203 3.7444-42.519 4.0083l-2.1167 0.16848zm29.551 9.6416c10.741-1.0217 20.442-1.9316 21.558-2.022 1.1163-0.0904 2.1728-0.25289 2.3479-0.36107 0.3836-0.2371 7.9977-35.748 7.7219-36.014-0.1062-0.10242-3.7275-0.90675-8.0473-1.7874l-7.8542-1.6012-7.4916 0.39429c-15.109 0.79518-17.38 0.92907-22.441 1.3228-7.0864 0.55144-8.5217 0.76898-13.195 2-3.9063 1.0289-5.586 1.6737-11.186 4.2938l-2.5534 1.1947-0.1618 2.4682c-0.089 1.3575-0.1901 3.5955-0.2247 4.9733l-0.063 2.5051 4.0196-0.1586 8.0128 11.862c9.0101 13.338 8.6045 12.788 9.424 12.788 0.3325 0 9.3926-0.83592 20.134-1.8576zm-12.75-40.958 2.1166-0.18084-0.036-0.92544c-0.02-0.50899-0.2864-3.3662-0.5929-6.3494-0.5227-5.0872-1.2224-15.179-1.8984-27.383-0.3151-5.6897-0.3166-5.6973-0.9915-5.2207-2.646 1.8685-5.5775 1.5015-7.2826-0.91172-2.8878-4.0868 1.5516-9.3033 6.1441-7.2197 0.6401 0.29043 1.2228 0.46914 1.2948 0.39713 0.364-0.36404-0.7571-12.726-1.2048-13.285-0.2531-0.31574-0.8042-1.0036-1.2247-1.5286-0.9508-1.1871-0.6965-1.5628 0.3677-0.54321 1.1298 1.0825 1.159 0.92631 0.8274-4.4222-0.165-2.661-0.2996-5.7709-0.2991-6.9108 0-2.4861-0.188-2.5166-1.7804-0.28821-10.537 14.746-11.385 52.125-1.6682 73.554l0.7783 1.7165 1.6663-0.15916c0.9164-0.0875 2.6188-0.24053 3.783-0.34zm9.4654-0.57514c1.5907-2e-3 1.5784 0.0281 2.2894-5.5341 1.2364-9.6727 1.7282-22.379 1.1889-30.713-0.2155-3.33-0.3272-3.5882-1.6441-3.7988-4.6065-0.73661-5.4947-7.0629-1.2975-9.241 0.6715-0.34847 0.9766-0.68606 0.9735-1.077-0.01-0.87127-0.9829-4.4407-1.3012-4.759-0.1549-0.15498-0.2817-0.65129-0.2817-1.1029 0-1.1888-2.4645-8.3359-2.873-8.3317-0.093 9.6e-4 -0.5269 0.2383-0.9635 0.52743-0.9527 0.63092-1.1906 0.65736-1.1906 0.13229 0-0.21828 0.1017-0.39688 0.2259-0.39688 0.1243 0 0.5468-0.29732 0.9389-0.66072l0.7129-0.66072-1.2237-2.3693c-2.9504-5.7126-4.0184-6.6612-5.9228-5.2607l-1.1397 0.83816 0.1861 3.329c0.5056 9.0389 0.2177 8.1626 3.5842 10.908 2.4685 2.0133 0.7398 1.4469-1.9216-0.62961-1.0288-0.80276-0.9858 7.1387 0.071 13.159 0.1533 0.87312 0.3167 4.1027 0.3632 7.1768 0.088 5.8109 0.1437 6.1846 0.9249 6.1846 0.2599 0 0.6885 0.23862 0.9524 0.53028 1.5058 1.6639 4.8745 1.0528 5.9635-1.0816 0.6484-1.271 1.4777-1.3556 1.3907-0.14182-0.2258 3.1523-5.3081 4.6514-8.0234 2.3667l-0.787-0.66224v1.5115c0 4.2682 1.7054 26.019 2.2894 29.199l0.1648 0.8974 2.5432-0.16843c1.3988-0.0926 3.1117-0.16904 3.8066-0.1698zm10.155-0.85878c0.4906-0.49631 2.6074-6.1294 3.6451-9.7003 6.5654-22.592 2.8205-44.848-9.7429-57.903-2.7409-2.848-2.9285-2.9089-3.3212-1.0779-0.3406 1.5885-0.9861 2.7278-2.1158 3.7343l-0.8024 0.71496 0.5577 1.3901c0.3067 0.76455 0.9705 2.6105 1.4752 4.1021 1.0832 3.2017 0.8781 3.1408 3.5633 1.0583 2.8712-2.2268 2.8134-2.1888 3.0209-1.9814 0.2843 0.28432-0.2886 0.83676-2.8302 2.7291-2.648 1.9716-2.5594 1.7107-1.7699 5.2115 0.5313 2.3555 0.6456 2.6042 1.2568 2.7339 4.9115 1.0421 6.1831 6.6296 2.088 9.1752l-1.2798 0.79561 0.1967 1.8798c0.3268 3.1233 0.2151 20.859-0.1552 24.634-0.3822 3.8957-1.2598 10.923-1.5337 12.28l-0.1822 0.90295 3.8001-0.17287c2.4973-0.1136 3.913-0.28709 4.1295-0.50607zm8.5016-0.37108c0.7805-0.49531 4.8189-6.8711 4.8189-7.6081 0-0.10273-0.3572-0.31129-0.7938-0.46348-1.1809-0.41166-0.9915-0.85031 0.2927-0.67806l1.0864 0.14571 1.1625-2.4878c1.2002-2.5683 1.3509-3.1426 0.898-3.4225-0.4484-0.27715-0.2937-0.62043 0.3196-0.7092 0.4833-0.0699 0.7151-0.49586 1.3418-2.4658 3.5463-11.148 3.3712-22.741-0.4891-32.386-1.2981-3.2432-1.2662-3.2298-3.5241-1.4852-1.0393 0.80294-2.0068 1.4599-2.1501 1.4599-0.641 0-0.117-0.62098 1.7223-2.041 2.4127-1.8627 2.4087-1.7365 0.1639-5.1281-3.626-5.4783-6.6901-8.5059-7.8436-7.7501-0.8126 0.53245-1.1705 0.29123-0.5634-0.37968 0.779-0.86081 0.2575-1.4033-3.9262-4.0836-4.3532-2.7889-4.9815-2.9424-7.2836-1.7803-1.9508 0.98473-2.022 0.65757 0.7821 3.5907 6.6233 6.9281 11.57 18.103 12.614 28.494 0.2484 2.4735 0.6365 2.4535 3.8007-0.19615 0.6706-0.56158 1.2249-0.85961 1.2818-0.68916 0.1535 0.46066-0.4283 1.0288-2.6425 2.5803l-2.0322 1.424-0.01 5.0844c-0.018 9.6987-1.7297 18.905-5.1713 27.81-0.664 1.718-1.2073 3.2662-1.2073 3.4403 0 0.47948 6.5492 0.23499 7.352-0.27446zm3.5419-25.904c0.074-0.35717 3.852-2.2366 4.4961-2.2366 0.5658 0 0.1184 0.57047-0.8248 1.0517-2.2599 1.1529-3.7651 1.6387-3.6713 1.1849zm-23.671-39.609c0.8837-0.96643 1.9291-3.7199 1.9291-5.0808 0-0.0516-0.963-0.71153-2.14-1.4665-5.26-3.3742-7.4623-3.1011-4.7702 0.5916 0.7105 0.97461 1.8472 2.8473 2.526 4.1615 1.3093 2.535 1.5901 2.7402 2.4551 1.7942zm4.7053-6.2239c1.9835-1.0832 1.5156-1.4296-3.7764-2.7952-4.9961-1.2893-6.2206-1.1656-3.2993 0.33322 0.8368 0.4293 2.2953 1.317 3.2412 1.9728 2.0333 1.4096 2.1274 1.4216 3.8345 0.48925zm-13.023-1.6155c0.4427-0.3671 0.429-0.42965-0.2479-1.1363-1.0608-1.1072-1.4112-0.97539-1.4112 0.53103 0 1.8344 0.1228 1.8792 1.6591 0.60525zm1.9837-1.4066c-0.1077-0.32315-1.5369-0.81947-1.749-0.60739-0.064 0.0644 0.034 0.29862 0.2175 0.52042 0.398 0.47957 1.6868 0.55275 1.5315 0.087z"/>
   <path d="m1569.9 456.27c-0.2315-0.18258-3.9576-5.5707-8.2801-11.974-9.5835-14.196-8.242-12.655-10.816-12.427l-2.0923 0.18522 0.1792-4.4626c0.099-2.4544 0.246-4.9572 0.3276-5.5617l0.1483-1.0991 3.744-1.7322c2.0593-0.95273 4.3286-1.98 5.0429-2.2829 1.7097-0.72489 9.9095-2.8328 11.93-3.067 2.0281-0.23497 2.0874-0.36289 1.1433-2.4644-9.1323-20.327-8.6389-56.172 0.9914-72.026 0.5308-0.87386 0.8967-1.6572 0.8131-1.7408-0.2282-0.22826-2.7912 1.8062-2.9649 2.3535-0.083 0.26146-0.276 0.47538-0.4289 0.47538-0.7207 0-5.8308 5.3641-5.6204 5.8998 0.069 0.17486 0.568 0.60593 1.1095 0.95792 0.5416 0.35199 0.8378 0.68895 0.6582 0.7488-0.1795 0.0599-0.6413-0.13884-1.0261-0.44154-1.4201-1.117-2.5632-0.0104-5.7721 5.5874-1.7429 3.0405-1.7353 2.9844-0.5015 3.7124 0.9731 0.57414 0.8432 1.0138-0.1435 0.4857-1.3093-0.70068-2.0061 0.3329-3.7658 5.5852-0.7302 2.1793-0.7636 2.4264-0.385 2.8448 0.5081 0.56154 0.5337 0.84243 0.06 0.66068-0.8315-0.31905-1.8017 3.6094-2.2593 9.1482-0.2764 3.3458-0.248 3.4399 1.0389 3.4399 0.558 0 1.088 0.11907 1.178 0.26459 0.098 0.15927-0.2511 0.26458-0.8781 0.26458-1.8602 0-1.9911 3.127-0.4486 10.724 0.8233 4.0552 0.6709 3.9175 4.1761 3.773 3.7294-0.15365 3.9315 0.18801 0.2519 0.4259-3.8482 0.2488-3.8533 0.30005-0.7231 7.3019 3.0719 6.8714 3.1323 6.9115 7.1721 4.7603 1.6835-0.89646 3.1305-1.5603 3.2155-1.4753 0.2104 0.21041 0.3197 0.14183-3.1747 1.9921-3.6239 1.9188-3.5551 1.7228-1.5471 4.4082 0.859 1.1488 1.5019 2.1482 1.4288 2.221-0.1756 0.17474-1.7738-1.6785-2.6725-3.0991-0.9841-1.5554-0.9935-1.5553-4.3461 0.0649-1.6408 0.79301-3.0797 1.4429-3.1974 1.4443-0.6019 7e-3 0.3485-0.58482 2.9832-1.8572 3.3552-1.6204 3.2931-1.4688 1.732-4.22-1.5492-2.7303-2.3431-4.5027-3.6763-8.2078l-1.0949-3.0427-1.3202-0.22121c-2.2717-0.38062-2.5108-0.44442-2.5108-0.6697 0-0.12066 0.665-0.1048 1.4779 0.0352 2.0884 0.35981 2.1484 0.23651 1.4756-3.0317-0.6537-3.1752-1.0768-6.4614-1.1687-9.0772l-0.065-1.8521-1.1907 9e-3c-0.6548 5e-3 -2.0836 0.10607-3.175 0.22513-1.2652 0.13802-1.8885 0.12468-1.7198-0.0368 0.1456-0.13931 1.4473-0.39299 2.8928-0.56372 3.1883-0.37658 3.3235-0.47312 3.3301-2.3776 0.01-1.8713 0.612-6.4474 1.1851-8.9568 0.5188-2.2712 0.511-2.2888-1.2595-2.8632-1.4496-0.47028-2.1774-0.91277-1.505-0.91506 0.211-7.9e-4 0.9347 0.19618 1.6082 0.43755 1.6619 0.59561 1.8637 0.45501 2.5742-1.793 0.3391-1.0728 1.0312-2.9293 1.5381-4.1256 1.1328-2.6735 1.379-2.3334-3.4398-4.7528-2.2076-1.1083-3.8759-2.0631-3.7073-2.1217 0.1685-0.0586 1.9826 0.7332 4.0313 1.7595 4.5781 2.2934 4.2236 2.313 5.7291-0.31678 0.6873-1.2006 2.0079-3.2849 2.9347-4.6318 1.6625-2.416 1.6781-2.4551 1.1548-2.9031-0.7612-0.65183-0.6538-0.86631 0.261-0.521 0.7286 0.275 5.7712-4.2784 6.3185-5.7055 0.054-0.14107-2.6014-2.9351-5.9012-6.2089-3.2998-3.2738-5.9304-6.0216-5.8459-6.1062 0.085-0.0846 2.8787 2.5616 6.209 5.8805 4.2848 4.27 6.1586 5.9709 6.4089 5.8176 0.1946-0.11918 1.6427-1.2215 3.2181-2.4496l2.8644-2.233 3.1538 0.17823c4.1788 0.23616 6.0204-0.92303 8.1054-5.1018 0.9241-1.8523 0.8428-1.7306 1.0309-1.5426 0.3886 0.38858-1.3227 3.2638-2.9389 4.9379-1.99 2.0613-1.9677 2.1506 0.6628 2.6493 0.9459 0.17931 3.1133 0.79553 4.8165 1.3694l3.0967 1.0434 2.658-1.3338c1.4618-0.7336 2.6579-1.215 2.6579-1.0698s-0.9525 0.74295-2.1166 1.3283c-1.7838 0.89686-2.7674 1.8521-1.9072 1.8521 0.4393 0 5.0322 2.7789 6.837 4.1366 2.1033 1.5823 2.3361 1.638 3.775 0.90393 0.556-0.28365 2.2479-0.8818 3.7598-1.3292 1.5119-0.44743 2.9573-0.87823 3.2119-0.95732 0.2547-0.0791 0.4631-0.033 0.4631 0.10249 0 0.13546-1.1609 0.57532-2.5797 0.97747-5.8144 1.648-6.1988 2.0403-4.1114 4.1964 2.3779 2.4561 3.8042 4.2584 5.7535 7.2705 1.1962 1.8485 1.8892 2.6869 2.141 2.5902 0.2048-0.0786 1.579-0.98753 3.0537-2.0199 1.4748-1.0324 2.7539-1.8046 2.8425-1.716 0.089 0.0886 0.04 0.24389-0.1091 0.34512-6.323 4.3082-5.9992 3.7699-4.5133 7.5036 3.9529 9.9329 4.1439 21.92 0.5237 32.874-0.7854 2.3766-0.6155 2.801 1.1214 2.801 1.2773 0 5.2337 0.79414 5.5349 1.111 0.1836 0.19306 0.022 0.22797-0.5291 0.11404-6.5412-1.3532-6.9851-1.2695-8.2321 1.5531-1.5501 3.5088-1.5828 3.6336-1.0366 3.954 0.6772 0.39721 4.4842 2.8352 4.6164 2.9564 0.8188 0.75035-0.7256 0.0778-2.4384-1.0619-2.5722-1.7115-2.9561-1.7825-3.5711-0.66098-0.2479 0.45207-1.2594 2.1392-2.2477 3.7491-2.2806 3.7148-2.8055 3.277 6.068 5.061 4.1994 0.84428 7.7627 1.6387 7.9185 1.7654 0.3562 0.2896-7.3585 36.734-7.8388 37.031-0.1781 0.11006-1.2299 0.2809-2.3373 0.37962-1.1074 0.0987-10.05 0.93664-19.873 1.862-9.8226 0.92539-18.812 1.7594-19.976 1.8534-1.1642 0.094-2.3015 0.22158-2.5275 0.2835-0.2259 0.0619-0.6001-0.0368-0.8317-0.21941zm14.472-1.5245c27.666-2.617 30.406-2.9059 30.742-3.2427 1.0708-1.0708 7.9805-36.115 7.1592-36.309-0.3274-0.0776-3.81-0.80576-7.739-1.618l-7.1438-1.4769-4.101 0.15057c-11.033 0.40508-23.436 1.1765-32.279 2.0075-3.3394 0.31382-10.584 2.1872-13.626 3.5236-8.4588 3.7159-7.7602 2.9335-7.8582 8.8003l-0.079 4.7513h3.9666l7.6101 11.245c4.1857 6.1846 7.9748 11.766 8.4203 12.404l0.8101 1.1587 1.3704-0.15857c0.7537-0.0872 6.4901-0.64283 12.748-1.2347zm-6.6316-41.542c3.1511-0.30638 3.0299-0.15177 2.6246-3.3482-0.6964-5.4927-1.8411-21.371-2.3747-32.943-0.2146-4.652-0.2585-4.7601-1.5383-3.784-1.9028 1.4513-4.6875 1.1587-6.3358-0.66579-3.7106-4.1072 1.04-10.128 5.8523-7.4171 1.5004 0.84525 1.4503 1.1191 0.9963-5.4402-0.5164-7.4619-0.4922-7.3428-1.7761-8.7356-0.5943-0.64475-0.9929-1.2591-0.8859-1.3653 0.1071-0.10617 0.4564 0.13439 0.7763 0.53457 0.6087 0.76164 1.2238 0.96141 1.222 0.39688-5e-4 -0.1819-0.128-1.9976-0.2831-4.0349s-0.3035-5.1231-0.3296-6.8573c-0.055-3.6541-0.2064-3.8458-1.5961-2.0235-11.082 14.531-12.094 51.935-2.0211 74.706 0.6381 1.4426 0.7281 1.4581 5.6692 0.97764zm10.115-0.68429c1.5981-0.16057 1.5265-0.035 2.053-3.5997 1.3289-8.9973 1.8653-17.844 1.6329-26.932-0.2423-9.4721-0.1957-9.2419-1.9579-9.692-4.6592-1.1903-5.4716-7.0463-1.2603-9.0849 0.6644-0.32165 1.208-0.70319 1.208-0.84786 0-0.42961-1.0545-4.5401-1.3119-5.1137-0.1306-0.29104-0.314-0.99156-0.4074-1.5567-0.2192-1.3249-2.1755-6.8435-2.6518-7.4802-0.3516-0.4701-0.3962-0.47072-1.2078-0.0168-1.182 0.66101-1.3097 0.32699-0.2253-0.58941l0.9095-0.76863-1.261-2.4991c-2.7331-5.4169-3.956-6.6172-5.6522-5.5478-1.665 1.0497-1.7033 1.35-1.1438 8.9835 0.3255 4.4409 0.1847 4.2012 4.1984 7.1454 0.061 0.0445 0.031 0.15982-0.065 0.25632s-0.9015-0.38834-1.7888-1.0774c-0.8874-0.6891-1.6827-1.1837-1.7673-1.0991-0.2097 0.20969 0.4385 11.005 0.7795 12.981 0.1506 0.87312 0.3072 3.8619 0.348 6.6416 0.096 6.5376 0.2653 7.8563 0.9794 7.6297 0.3696-0.11732 0.7635 0.0582 1.3141 0.58578 1.5757 1.5096 4.7352 0.89479 5.7786-1.1245 0.6856-1.3266 1.323-1.4293 1.323-0.21301 0 2.8015-5.231 4.3368-7.8835 2.3137-1.309-0.99846-1.3081-1.0816-0.1678 14.991 1.2428 17.519 0.6946 16.472 8.2276 15.715zm9.566-0.52685c0.7362-0.15183 1.3962-1.5418 3.1194-6.5698 8.052-23.494 4.7431-47.411-8.5067-61.486-2.8012-2.9757-3.2213-3.0616-3.7783-0.77272-0.2784 1.1439-0.6738 1.8621-1.5804 2.8705-1.1606 1.2908-1.1961 1.3784-0.8836 2.1786 0.1791 0.45852 0.8138 2.2624 1.4104 4.0087 1.4021 4.1038 1.0979 3.9839 4.1735 1.645 1.4594-1.1098 2.6512-1.8744 2.6486-1.6991 0 0.1753-1.1268 1.1522-2.498 2.1708-3.0125 2.2379-2.8986 1.9927-2.2456 4.834 0.7558 3.2883 0.819 3.3967 2.1023 3.6019 4.644 0.74261 5.1411 6.5092 0.8124 9.4246l-0.591 0.39802 0.3187 5.8197c0.4771 8.7148 0.013 18.67-1.3546 29.055-0.3031 2.3018-0.4829 4.3628-0.3995 4.5801 0.1467 0.38236 5.316 0.34023 7.2524-0.0591zm9.1126-0.54697c0.3576-0.22101 2.7232-3.857 3.8559-5.9267 1.1316-2.0678 1.1296-2.6293-0.01-2.6293-0.2619 0-0.4762-0.11157-0.4762-0.24795 0-0.13637 0.3869-0.19158 0.8599-0.12269 1.3037 0.18989 4.2395-4.8035 3.411-5.8017-0.2486-0.29965-0.1853-0.458 0.3144-0.78541 1.1915-0.78067 3.0787-8.5443 3.6154-14.873 0.6087-7.1788-0.9783-16.485-3.7318-21.882-0.6613-1.2964-0.8069-1.2747-3.0818 0.45848-2.5245 1.9234-2.472 1.4093 0.068-0.66628 2.3398-1.912 2.2622-1.558 0.8451-3.8566-3.5-5.6768-7.8209-10.096-8.8576-9.0595-0.4678 0.4678-0.6728 0.0826-0.2858-0.5371 0.5549-0.88866-3.0213-3.6961-7.5048-5.8914l-1.7801-0.87162-1.8579 0.89879c-2.2546 1.0907-2.2723 1.2668-0.3187 3.1725 7.2147 7.0378 11.686 17.032 13.407 29.969 0.22 1.6538 0.5678 1.6296 3.013-0.20988 1.0723-0.80666 1.9996-1.4166 2.0607-1.3555 0.175 0.17498-2.3069 2.2768-3.5499 3.0063-0.6184 0.36296-1.1248 0.7379-1.1251 0.83322-0.057 14.696-1.501 23.447-5.5585 33.683-0.5798 1.4625-0.9784 2.7814-0.886 2.931 0.1641 0.26546 7.1121 0.0495 7.573-0.23543zm3.3701-26.166c0-0.25267 4.0252-1.9954 4.3358-1.8771 0.1619 0.0616-0.635 0.54231-1.7708 1.0682-2.0189 0.93481-2.565 1.107-2.565 0.8089zm-23.042-40.036c0.5272-0.74028 1.3464-3.3686 1.3464-4.3193 0-0.91295-5.366-4.1803-6.8653-4.1803-1.7079 0-1.7652 0.79785-0.2125 2.962 0.7768 1.0826 1.932 2.9724 2.5672 4.1996 1.5291 2.954 1.9015 3.1115 3.1642 1.3381zm3.9998-5.593c2.2336-1.1275 2.0878-1.4041-1.3074-2.4792-5.7134-1.8092-9.3591-1.9373-5.9345-0.20856 0.8591 0.43371 2.4514 1.3945 3.5383 2.1351 2.3418 1.5956 1.7983 1.5145 3.7036 0.55268zm-13.334-1.3407c1.1023-0.68126 1.1175-1.0638 0.077-1.9393-1.2415-1.0446-1.5672-0.80676-1.5672 1.1446 0 1.5003 0.187 1.6 1.4901 0.79463zm2.4633-1.6798c0.3879-0.46738-0.3539-0.94449-1.4686-0.94449h-0.725l0.6214 0.66145c0.7071 0.75261 1.1207 0.82707 1.5722 0.28304z"/>
   <path d="m1580.9 382.2c-0.8885-0.49142-1.7121-1.3417-1.5514-1.6017 0.084-0.13531 0.4073-7e-3 0.7194 0.28542 1.8393 1.7227 5.257 1.2464 6.4092-0.89316 0.5107-0.94815 0.9051-1.1938 0.9051-0.56365 0 2.0696-4.3723 3.9401-6.4823 2.7731zm-9.3338-8.8619c-3.8351-1.8903-3.1841-7.5649 0.9805-8.5469 5.2499-1.238 7.936 6.0225 3.1383 8.4829-1.1946 0.61262-2.9504 0.63989-4.1188 0.064zm16.976-1.6542c-2.8697-1.3032-3.6229-4.8449-1.5244-7.1678 3.8017-4.208 10.332 0.8878 7.1632 5.5898-1.2731 1.8892-3.5502 2.5264-5.6388 1.5779zm-13.1-36.354c0.3888-0.47803 1.8858-0.62237 1.8858-0.18183 0 0.14552-0.2879 0.26458-0.6398 0.26458s-0.8579 0.0818-1.1245 0.18183c-0.4266 0.16007-0.4412 0.12839-0.1215-0.26458z"/>
   <path d="m1571.5 372.99c-3.359-1.7754-2.6868-6.9242 1.0347-7.9263 5.0071-1.3482 7.5617 5.677 2.9345 8.0698-1.0182 0.52653-2.8251 0.4612-3.9692-0.1435zm16.951-1.656c-2.363-1.1927-3.0943-4.2788-1.5071-6.3598 3.2179-4.2188 9.7349-0.10169 7.2568 4.5845-1.139 2.1539-3.5343 2.8935-5.7497 1.7754z"/>
  </g>
 </g>
</svg>
