<?xml version="1.0" encoding="UTF-8" standalone="no"?>
<svg
   xmlns:dc="http://purl.org/dc/elements/1.1/"
   xmlns:cc="http://creativecommons.org/ns#"
   xmlns:rdf="http://www.w3.org/1999/02/22-rdf-syntax-ns#"
   xmlns:svg="http://www.w3.org/2000/svg"
   xmlns="http://www.w3.org/2000/svg"
   xmlns:sodipodi="http://sodipodi.sourceforge.net/DTD/sodipodi-0.dtd"
   xmlns:inkscape="http://www.inkscape.org/namespaces/inkscape"
   inkscape:version="1.0 (4035a4fb49, 2020-05-01)"
   sodipodi:docname="logo-github.svg"
   id="svg6"
   version="1.1"
   viewBox="0 0 448 448.00018"
   height="448.00018"
   width="448">
  <metadata
     id="metadata12">
    <rdf:RDF>
      <cc:Work
         rdf:about="">
        <dc:format>image/svg+xml</dc:format>
        <dc:type
           rdf:resource="http://purl.org/dc/dcmitype/StillImage" />
        <dc:title>ionicons-v5_logos</dc:title>
      </cc:Work>
    </rdf:RDF>
  </metadata>
  <defs
     id="defs10" />
  <sodipodi:namedview
     inkscape:current-layer="svg6"
     inkscape:window-maximized="1"
     inkscape:window-y="-9"
     inkscape:window-x="-9"
     inkscape:cy="224"
     inkscape:cx="224"
     inkscape:zoom="1.7539062"
     inkscape:object-paths="true"
     fit-margin-bottom="0"
     fit-margin-right="0"
     fit-margin-left="0"
     fit-margin-top="0"
     showgrid="false"
     id="namedview8"
     inkscape:window-height="1051"
     inkscape:window-width="1920"
     inkscape:pageshadow="2"
     inkscape:pageopacity="0"
     guidetolerance="10"
     gridtolerance="10"
     objecttolerance="10"
     borderopacity="1"
     bordercolor="#666666"
     pagecolor="#ffffff" />
  <title
     id="title2">ionicons-v5_logos</title>
  <path
     style="fill:#ffffff"
     id="path4"
     d="M 224,0 C 100.3,0 0,102.9 0,229.7 0,331.2 64.2,417.2 153.2,447.6 a 17.56,17.56 0 0 0 3.8,0.4 c 8.3,0 11.5,-6.1 11.5,-11.4 0,-5.5 -0.2,-19.9 -0.3,-39.1 a 102.4,102.4 0 0 1 -22.6,2.7 C 102.5,400.2 92.7,366.7 92.7,366.7 82.5,340.2 67.8,333.1 67.8,333.1 48.3,319.4 67.7,319 69.2,319 h 0.1 c 22.5,2 34.3,23.8 34.3,23.8 11.2,19.6 26.2,25.1 39.6,25.1 a 63,63 0 0 0 25.6,-6 c 2,-14.8 7.8,-24.9 14.2,-30.7 -49.7,-5.8 -102,-25.5 -102,-113.5 0,-25.1 8.7,-45.6 23,-61.6 -2.3,-5.8 -10,-29.2 2.2,-60.8 a 18.64,18.64 0 0 1 5,-0.5 c 8.1,0 26.4,3.1 56.6,24.1 a 208.21,208.21 0 0 1 112.2,0 c 30.2,-21 48.5,-24.1 56.6,-24.1 a 18.64,18.64 0 0 1 5,0.5 c 12.2,31.6 4.5,55 2.2,60.8 14.3,16.1 23,36.6 23,61.6 0,88.2 -52.4,107.6 -102.3,113.3 8,7.1 15.2,21.1 15.2,42.5 0,30.7 -0.3,55.5 -0.3,63 0,5.4 3.1,11.5 11.4,11.5 a 19.35,19.35 0 0 0 4,-0.4 C 383.9,417.2 448,331.1 448,229.7 448,102.9 347.7,0 224,0 Z" />
</svg>
