<?xml version="1.0" encoding="UTF-8" standalone="no"?>
<svg
   xmlns:dc="http://purl.org/dc/elements/1.1/"
   xmlns:cc="http://creativecommons.org/ns#"
   xmlns:rdf="http://www.w3.org/1999/02/22-rdf-syntax-ns#"
   xmlns:svg="http://www.w3.org/2000/svg"
   xmlns="http://www.w3.org/2000/svg"
   xmlns:sodipodi="http://sodipodi.sourceforge.net/DTD/sodipodi-0.dtd"
   xmlns:inkscape="http://www.inkscape.org/namespaces/inkscape"
   inkscape:version="1.0 (4035a4fb49, 2020-05-01)"
   sodipodi:docname="gitlab.svg"
   id="svg18"
   version="1.1"
   preserveAspectRatio="xMinYMin meet"
   viewBox="0 0 256 236"
   height="2305"
   width="2500">
  <defs
     id="defs22" />
  <sodipodi:namedview
     inkscape:current-layer="svg18"
     inkscape:window-maximized="1"
     inkscape:window-y="-9"
     inkscape:window-x="-9"
     inkscape:cy="1050.0928"
     inkscape:cx="1250"
     inkscape:zoom="0.38958785"
     showgrid="false"
     id="namedview20"
     inkscape:window-height="1051"
     inkscape:window-width="1920"
     inkscape:pageshadow="2"
     inkscape:pageopacity="0"
     guidetolerance="10"
     gridtolerance="10"
     objecttolerance="10"
     borderopacity="1"
     bordercolor="#666666"
     pagecolor="#ffffff" />
  <path
     style="fill:#ffffff"
     id="path2"
     fill="#E24329"
     d="M128.075 236.075l47.104-144.97H80.97l47.104 144.97z" />
  <path
     style="fill:#ffffff"
     id="path4"
     fill="#FC6D26"
     d="M128.075 236.074L80.97 91.104H14.956l113.119 144.97z" />
  <path
     style="fill:#ffffff"
     id="path6"
     fill="#FCA326"
     d="M14.956 91.104L.642 135.16a9.752 9.752 0 0 0 3.542 10.903l123.891 90.012-113.12-144.97z" />
  <path
     style="fill:#ffffff"
     id="path8"
     fill="#E24329"
     d="M14.956 91.105H80.97L52.601 3.79c-1.46-4.493-7.816-4.492-9.275 0l-28.37 87.315z" />
  <path
     style="fill:#ffffff"
     id="path10"
     fill="#FC6D26"
     d="M128.075 236.074l47.104-144.97h66.015l-113.12 144.97z" />
  <path
     style="fill:#ffffff"
     id="path12"
     fill="#FCA326"
     d="M241.194 91.104l14.314 44.056a9.752 9.752 0 0 1-3.543 10.903l-123.89 90.012 113.119-144.97z" />
  <path
     style="fill:#ffffff"
     id="path14"
     fill="#E24329"
     d="M241.194 91.105h-66.015l28.37-87.315c1.46-4.493 7.816-4.492 9.275 0l28.37 87.315z" />
  <metadata
     id="metadata16">
    <rdf:RDF>
      <rdf:Description
         dc:language="en"
         dc:format="image/svg+xml"
         dc:date="2017-07-12"
         dc:publisher="Iconscout"
         dc:description="gitlab-company-brand-logo"
         dc:title="gitlab-company-brand-logo"
         about="https://iconscout.com/legal#licenses">
        <dc:creator>
          <rdf:Bag>
            <rdf:li>Icon Mafia</rdf:li>
          </rdf:Bag>
        </dc:creator>
      </rdf:Description>
      <cc:Work
         rdf:about="">
        <dc:format>image/svg+xml</dc:format>
        <dc:type
           rdf:resource="http://purl.org/dc/dcmitype/StillImage" />
        <dc:title></dc:title>
      </cc:Work>
    </rdf:RDF>
  </metadata>
</svg>
