<?xml version="1.0" encoding="UTF-8"?>
<svg width="4.8781mm" height="7.7954mm" version="1.1" viewBox="0 0 4.8781 7.7954" xmlns="http://www.w3.org/2000/svg" xmlns:cc="http://creativecommons.org/ns#" xmlns:dc="http://purl.org/dc/elements/1.1/" xmlns:rdf="http://www.w3.org/1999/02/22-rdf-syntax-ns#">
 <metadata>
  <rdf:RDF>
   <cc:Work rdf:about="">
    <dc:format>image/svg+xml</dc:format>
    <dc:type rdf:resource="http://purl.org/dc/dcmitype/StillImage"/>
    <dc:title/>
   </cc:Work>
  </rdf:RDF>
 </metadata>
 <g transform="translate(-135.9 -64.894)">
  <g transform="matrix(.45327 0 0 .45327 -129.02 143.62)">
   <g transform="matrix(1 0 0 .97886 -180.91 -94.125)">
    <rect x="765.37" y="-81.286" width="2.3812" height="17.569" rx="1.4552" ry="1.4866" fill="#161616" style="paint-order:markers stroke fill"/>
   </g>
   <g transform="matrix(.43598 -.36139 .43598 .36139 428.43 81.174)">
    <rect x="525.32" y="-158.74" width="13.229" height="3.9688" rx="2.1456" ry="2.5885" style="paint-order:markers stroke fill"/>
    <rect transform="rotate(90)" x="-168" y="-538.55" width="13.229" height="3.9688" rx="2.5885" ry="2.1456" style="paint-order:markers stroke fill"/>
   </g>
   <g transform="matrix(-.43598 -.36139 -.43598 .36139 755.57 89.719)">
    <rect x="525.32" y="-158.74" width="13.229" height="3.9688" rx="2.1456" ry="2.5885" style="paint-order:markers stroke fill"/>
    <rect transform="rotate(90)" x="-168" y="-538.55" width="13.229" height="3.9688" rx="2.5885" ry="2.1456" style="paint-order:markers stroke fill"/>
   </g>
  </g>
 </g>
</svg>
