<?xml version="1.0" encoding="UTF-8"?>
<svg width="13.229mm" height="13.229mm" version="1.1" viewBox="0 0 13.229 13.229" xmlns="http://www.w3.org/2000/svg" xmlns:cc="http://creativecommons.org/ns#" xmlns:dc="http://purl.org/dc/elements/1.1/" xmlns:rdf="http://www.w3.org/1999/02/22-rdf-syntax-ns#">
 <metadata>
  <rdf:RDF>
   <cc:Work rdf:about="">
    <dc:format>image/svg+xml</dc:format>
    <dc:type rdf:resource="http://purl.org/dc/dcmitype/StillImage"/>
    <dc:title/>
   </cc:Work>
  </rdf:RDF>
 </metadata>
 <g transform="translate(-105.27 -97.707)">
  <path d="m111.84 97.707a6.6146 6.6146 0 0 0-6.5701 6.6146 6.6146 6.6146 0 0 0 6.6146 6.6146 6.6146 6.6146 0 0 0 6.6146-6.6146 6.6146 6.6146 0 0 0-6.6146-6.6146 6.6146 6.6146 0 0 0-0.0445 0zm-1.8552 2.7171c0.299 0 0.54001 0.29397 0.54001 0.6594v6.4761c0 0.36542-0.24101 0.65939-0.54001 0.65939-0.29898 0-0.53939-0.29397-0.53952-0.65939v-6.4761c0-0.36543 0.24054-0.6594 0.53952-0.6594zm1.8769 5e-4c0.196-0.0104 0.41974 0.062 0.59685 0.20877l1.5916 1.3193c0.0242 0.02 0.0444 0.0413 0.0651 0.0625 0.0184 0.0116 0.0375 0.0223 0.0543 0.0362 0.15542 0.12882 0.19021 0.31976 0.11266 0.48938v5e-4c-1.6e-4 3.5e-4 -3.5e-4 6.9e-4 -5.3e-4 1e-3 -6e-3 0.0135-0.0125 0.0267-0.0201 0.0398-0.0221 0.0438-0.0505 0.085-0.092 0.11937-5e-3 4e-3 -0.0106 6e-3 -0.0155 0.01-6e-3 5e-3 -0.0104 0.0114-0.0166 0.0165l-1.7663 1.4645c-0.2349 0.19472-0.5987 0.20644-0.81595 0.0263-0.21725-0.18007-0.20339-0.48173 0.0316-0.67644l1.4061-1.1658-1.3183-1.093c-0.28337-0.2349-0.33663-0.5687-0.11935-0.74879 0.0815-0.0675 0.1888-0.10384 0.30644-0.11007zm2.0009 3.8732c0.11761 6e-3 0.22547 0.042 0.30694 0.10955 0.21725 0.18008 0.16402 0.51441-0.11938 0.74931l-1.3188 1.093 1.4061 1.1653c0.23492 0.19471 0.24929 0.49637 0.0321 0.67644-0.21725 0.18009-0.58158 0.16836-0.81648-0.0263l-1.7663-1.464c-6e-3 -6e-3 -0.0113-0.0119-0.0176-0.0176-4e-3 -3e-3 -9e-3 -5e-3 -0.014-9e-3 -0.0415-0.0343-0.07-0.0756-0.092-0.11937-7e-3 -0.0133-0.0144-0.0267-0.0206-0.0403-5e-5 -1.5e-4 7e-5 -3.7e-4 0-5.3e-4 -0.0779-0.16977-0.0429-0.36092 0.11267-0.48989 0.0166-0.0138 0.0355-0.0241 0.0538-0.0357 0.0209-0.0215 0.0412-0.0434 0.0656-0.0636l1.5911-1.3188c0.1771-0.14681 0.40084-0.21916 0.59687-0.20877z" fill="#fff" style="paint-order:markers stroke fill"/>
 </g>
</svg>
