<?xml version="1.0" encoding="UTF-8"?>
<svg width="444.38mm" height="189.72mm" version="1.1" viewBox="0 0 444.38 189.72" xmlns="http://www.w3.org/2000/svg" xmlns:cc="http://creativecommons.org/ns#" xmlns:dc="http://purl.org/dc/elements/1.1/" xmlns:rdf="http://www.w3.org/1999/02/22-rdf-syntax-ns#">
 <metadata>
  <rdf:RDF>
   <cc:Work rdf:about="">
    <dc:format>image/svg+xml</dc:format>
    <dc:type rdf:resource="http://purl.org/dc/dcmitype/StillImage"/>
    <dc:title/>
   </cc:Work>
  </rdf:RDF>
 </metadata>
 <g fill="#b3b3b3" stroke-linecap="round" stroke-linejoin="round" stroke-width=".52917">
  <path d="m219.11 46.919a0.39687 0.39687 0 0 1-0.52404-0.15219 0.39687 0.39687 0 0 1 0.12328-0.53159 0.39687 0.39687 0 0 1 0.53754 0.094 0.39687 0.39687 0 0 1-0.0645 0.54188" style="paint-order:markers stroke fill"/>
  <path d="m192.65 57.503a0.39687 0.39687 0 0 1-0.52405-0.15219 0.39687 0.39687 0 0 1 0.12329-0.53158 0.39687 0.39687 0 0 1 0.53753 0.094 0.39687 0.39687 0 0 1-0.0645 0.54187" style="paint-order:markers stroke fill"/>
  <path d="m182.07 20.461a0.39687 0.39687 0 0 1-0.52404-0.15219 0.39687 0.39687 0 0 1 0.12328-0.53158 0.39687 0.39687 0 0 1 0.53754 0.094 0.39687 0.39687 0 0 1-0.0644 0.54187" style="paint-order:markers stroke fill"/>
  <path d="m113.28 94.544a0.39687 0.39687 0 0 1-0.52405-0.1522 0.39687 0.39687 0 0 1 0.12329-0.53158 0.39687 0.39687 0 0 1 0.53753 0.094 0.39687 0.39687 0 0 1-0.0645 0.54188" style="paint-order:markers stroke fill"/>
  <path d="m222.26 134.17a0.39687 0.39687 0 0 1-0.52404-0.1522 0.39687 0.39687 0 0 1 0.12328-0.53158 0.39687 0.39687 0 0 1 0.53754 0.094 0.39687 0.39687 0 0 1-0.0645 0.54187" style="paint-order:markers stroke fill"/>
  <path d="m427.68 42.501a0.39687 0.39687 0 0 1-0.52404-0.15219 0.39687 0.39687 0 0 1 0.12329-0.53158 0.39687 0.39687 0 0 1 0.53753 0.094 0.39687 0.39687 0 0 1-0.0644 0.54187" style="paint-order:markers stroke fill"/>
  <path d="m444.17 155.13a0.39687 0.39687 0 0 1-0.52404-0.15219 0.39687 0.39687 0 0 1 0.12329-0.53158 0.39687 0.39687 0 0 1 0.53753 0.094 0.39687 0.39687 0 0 1-0.0644 0.54187" style="paint-order:markers stroke fill"/>
  <path d="m38.911 47.74a0.39687 0.39687 0 0 1-0.52404-0.15219 0.39687 0.39687 0 0 1 0.12329-0.53159 0.39687 0.39687 0 0 1 0.53753 0.094 0.39687 0.39687 0 0 1-0.06446 0.54188" style="paint-order:markers stroke fill"/>
  <path d="m77.107 14.812a0.39687 0.39687 0 0 1-0.52404-0.15219 0.39687 0.39687 0 0 1 0.12329-0.53159 0.39687 0.39687 0 0 1 0.53753 0.094 0.39687 0.39687 0 0 1-0.06445 0.54188" style="paint-order:markers stroke fill"/>
  <path d="m0.57852 79.545a0.39687 0.39687 0 0 1-0.52404-0.15219 0.39687 0.39687 0 0 1 0.12329-0.53158 0.39687 0.39687 0 0 1 0.53753 0.094 0.39687 0.39687 0 0 1-0.0644 0.54187" style="paint-order:markers stroke fill"/>
  <path d="m354.71 163.73a0.39687 0.39687 0 0 1-0.52404-0.1522 0.39687 0.39687 0 0 1 0.12328-0.53158 0.39687 0.39687 0 0 1 0.53754 0.094 0.39687 0.39687 0 0 1-0.0645 0.54187" style="paint-order:markers stroke fill"/>
  <path d="m328.52 0.74974a0.39687 0.39687 0 0 1-0.52404-0.15219 0.39687 0.39687 0 0 1 0.12329-0.53159 0.39687 0.39687 0 0 1 0.53753 0.094 0.39687 0.39687 0 0 1-0.0645 0.54187" style="paint-order:markers stroke fill"/>
  <path d="m158.25 189.68a0.39687 0.39687 0 0 1-0.52404-0.15219 0.39687 0.39687 0 0 1 0.12329-0.53159 0.39687 0.39687 0 0 1 0.53753 0.094 0.39687 0.39687 0 0 1-0.0644 0.54188" style="paint-order:markers stroke fill"/>
  <path d="m313.85 87.878a0.39687 0.39687 0 0 0 0.48403-0.252 0.39687 0.39687 0 0 0-0.22514-0.49709 0.39687 0.39687 0 0 0-0.50867 0.19759 0.39687 0.39687 0 0 0 0.16952 0.51871" style="paint-order:markers stroke fill"/>
  <path d="m357.73 102.52a0.39687 0.39687 0 0 0 0.48403-0.252 0.39687 0.39687 0 0 0-0.22514-0.49708 0.39687 0.39687 0 0 0-0.50866 0.19758 0.39687 0.39687 0 0 0 0.16951 0.5187" style="paint-order:markers stroke fill"/>
 </g>
</svg>
