<?xml version="1.0" encoding="UTF-8"?>
<svg width="491.61mm" height="230.63mm" version="1.1" viewBox="0 0 491.61 230.63" xmlns="http://www.w3.org/2000/svg" xmlns:cc="http://creativecommons.org/ns#" xmlns:dc="http://purl.org/dc/elements/1.1/" xmlns:rdf="http://www.w3.org/1999/02/22-rdf-syntax-ns#">
 <metadata>
  <rdf:RDF>
   <cc:Work rdf:about="">
    <dc:format>image/svg+xml</dc:format>
    <dc:type rdf:resource="http://purl.org/dc/dcmitype/StillImage"/>
    <dc:title/>
   </cc:Work>
  </rdf:RDF>
 </metadata>
 <g transform="translate(121.83 55.594)">
  <g transform="translate(-638.7 -340.48)" fill="#fff">
   <g stroke-linecap="round" stroke-linejoin="round" stroke-width=".52917">
    <path d="m720.1 315.3a0.39687 0.39687 0 0 1-0.52404-0.15219 0.39687 0.39687 0 0 1 0.12329-0.53158 0.39687 0.39687 0 0 1 0.53753 0.094 0.39687 0.39687 0 0 1-0.0644 0.54187" style="paint-order:markers stroke fill"/>
    <path d="m693.64 325.88a0.39687 0.39687 0 0 1-0.52404-0.15219 0.39687 0.39687 0 0 1 0.12328-0.53158 0.39687 0.39687 0 0 1 0.53754 0.094 0.39687 0.39687 0 0 1-0.0645 0.54187" style="paint-order:markers stroke fill"/>
    <path d="m683.06 288.84a0.39687 0.39687 0 0 1-0.52404-0.1522 0.39687 0.39687 0 0 1 0.12328-0.53158 0.39687 0.39687 0 0 1 0.53754 0.094 0.39687 0.39687 0 0 1-0.0645 0.54188" style="paint-order:markers stroke fill"/>
    <path d="m614.27 362.92a0.39687 0.39687 0 0 1-0.52404-0.15219 0.39687 0.39687 0 0 1 0.12328-0.53159 0.39687 0.39687 0 0 1 0.53754 0.094 0.39687 0.39687 0 0 1-0.0645 0.54188" style="paint-order:markers stroke fill"/>
    <path d="m723.25 402.55a0.39687 0.39687 0 0 1-0.52404-0.15219 0.39687 0.39687 0 0 1 0.12329-0.53159 0.39687 0.39687 0 0 1 0.53753 0.094 0.39687 0.39687 0 0 1-0.0644 0.54188" style="paint-order:markers stroke fill"/>
    <path d="m928.67 310.88a0.39687 0.39687 0 0 1-0.52404-0.15219 0.39687 0.39687 0 0 1 0.12329-0.53159 0.39687 0.39687 0 0 1 0.53753 0.094 0.39687 0.39687 0 0 1-0.0644 0.54188" style="paint-order:markers stroke fill"/>
    <path d="m945.16 423.51a0.39687 0.39687 0 0 1-0.52404-0.15219 0.39687 0.39687 0 0 1 0.12329-0.53159 0.39687 0.39687 0 0 1 0.53753 0.094 0.39687 0.39687 0 0 1-0.0644 0.54188" style="paint-order:markers stroke fill"/>
    <path d="m539.9 316.12a0.39687 0.39687 0 0 1-0.52404-0.15219 0.39687 0.39687 0 0 1 0.12328-0.53158 0.39687 0.39687 0 0 1 0.53754 0.094 0.39687 0.39687 0 0 1-0.0645 0.54187" style="paint-order:markers stroke fill"/>
    <path d="m517.44 369.09a0.39687 0.39687 0 0 1-0.52404-0.15219 0.39687 0.39687 0 0 1 0.12328-0.53158 0.39687 0.39687 0 0 1 0.53754 0.094 0.39687 0.39687 0 0 1-0.0645 0.54187" style="paint-order:markers stroke fill"/>
    <path d="m855.7 432.11a0.39687 0.39687 0 0 1-0.52404-0.15219 0.39687 0.39687 0 0 1 0.12329-0.53159 0.39687 0.39687 0 0 1 0.53753 0.094 0.39687 0.39687 0 0 1-0.0644 0.54188" style="paint-order:markers stroke fill"/>
    <path d="m840.09 290.3a0.39687 0.39687 0 0 1-0.52404-0.15219 0.39687 0.39687 0 0 1 0.12328-0.53159 0.39687 0.39687 0 0 1 0.53754 0.094 0.39687 0.39687 0 0 1-0.0645 0.54187" style="paint-order:markers stroke fill"/>
    <path d="m659.24 458.06a0.39687 0.39687 0 0 1-0.52404-0.15219 0.39687 0.39687 0 0 1 0.12328-0.53158 0.39687 0.39687 0 0 1 0.53754 0.094 0.39687 0.39687 0 0 1-0.0645 0.54187" style="paint-order:markers stroke fill"/>
    <path d="m531.23 296.61a0.66146 0.66146 0 0 1-0.87341-0.25365 0.66146 0.66146 0 0 1 0.20548-0.88597 0.66146 0.66146 0 0 1 0.89589 0.15668 0.66146 0.66146 0 0 1-0.10742 0.90312" opacity=".5" style="paint-order:markers stroke fill"/>
    <path d="m554.43 384.92a0.66146 0.66146 0 0 1-0.8734-0.25365 0.66146 0.66146 0 0 1 0.20548-0.88598 0.66146 0.66146 0 0 1 0.89588 0.15669 0.66146 0.66146 0 0 1-0.10742 0.90312" opacity=".5" style="paint-order:markers stroke fill"/>
    <path d="m698.49 377.06a0.66146 0.66146 0 0 1-0.8734-0.25365 0.66146 0.66146 0 0 1 0.20547-0.88597 0.66146 0.66146 0 0 1 0.89589 0.15668 0.66146 0.66146 0 0 1-0.10742 0.90312" opacity=".5" style="paint-order:markers stroke fill"/>
    <path d="m825.71 374.82a0.66146 0.66146 0 0 1-0.8734-0.25365 0.66146 0.66146 0 0 1 0.20548-0.88597 0.66146 0.66146 0 0 1 0.89589 0.15668 0.66146 0.66146 0 0 1-0.10742 0.90313" opacity=".5" style="paint-order:markers stroke fill"/>
    <path d="m783.8 286.14a0.66146 0.66146 0 0 1-0.8734-0.25365 0.66146 0.66146 0 0 1 0.20547-0.88597 0.66146 0.66146 0 0 1 0.89589 0.15668 0.66146 0.66146 0 0 1-0.10742 0.90312" opacity=".5" style="paint-order:markers stroke fill"/>
    <path d="m776.31 439.17a0.66146 0.66146 0 0 1-0.8734-0.25365 0.66146 0.66146 0 0 1 0.20547-0.88597 0.66146 0.66146 0 0 1 0.89589 0.15668 0.66146 0.66146 0 0 1-0.10742 0.90313" opacity=".5" style="paint-order:markers stroke fill"/>
    <path d="m915.13 320.19a0.66146 0.66146 0 0 1-0.8734-0.25365 0.66146 0.66146 0 0 1 0.20547-0.88597 0.66146 0.66146 0 0 1 0.89589 0.15668 0.66146 0.66146 0 0 1-0.10742 0.90312" opacity=".5" style="paint-order:markers stroke fill"/>
    <path d="m911.02 442.92a0.66146 0.66146 0 0 1-0.8734-0.25366 0.66146 0.66146 0 0 1 0.20548-0.88597 0.66146 0.66146 0 0 1 0.89589 0.15669 0.66146 0.66146 0 0 1-0.10743 0.90312" opacity=".5" style="paint-order:markers stroke fill"/>
    <path d="m815.23 357.23a0.66146 0.66146 0 0 1-0.8734-0.25365 0.66146 0.66146 0 0 1 0.20548-0.88597 0.66146 0.66146 0 0 1 0.89589 0.15668 0.66146 0.66146 0 0 1-0.10742 0.90312" opacity=".5" style="paint-order:markers stroke fill"/>
    <path d="m531.54 335.77a0.39687 0.39687 0 0 1-0.52404-0.15219 0.39687 0.39687 0 0 1 0.12328-0.53158 0.39687 0.39687 0 0 1 0.53754 0.094 0.39687 0.39687 0 0 1-0.0645 0.54187" opacity=".5" style="paint-order:markers stroke fill"/>
    <path d="m526.78 398.22a0.39687 0.39687 0 0 1-0.52404-0.15219 0.39687 0.39687 0 0 1 0.12329-0.53158 0.39687 0.39687 0 0 1 0.53753 0.094 0.39687 0.39687 0 0 1-0.0645 0.54187" opacity=".5" style="paint-order:markers stroke fill"/>
    <path d="m680.5 447.96a0.39687 0.39687 0 0 1-0.52404-0.15219 0.39687 0.39687 0 0 1 0.12328-0.53158 0.39687 0.39687 0 0 1 0.53753 0.094 0.39687 0.39687 0 0 1-0.0645 0.54187" opacity=".5" style="paint-order:markers stroke fill"/>
    <path d="m752.47 372.29a0.39687 0.39687 0 0 1-0.52404-0.15219 0.39687 0.39687 0 0 1 0.12329-0.53159 0.39687 0.39687 0 0 1 0.53753 0.094 0.39687 0.39687 0 0 1-0.0645 0.54188" opacity=".5" style="paint-order:markers stroke fill"/>
    <path d="m836.6 295.82a0.39687 0.39687 0 0 1-0.52404-0.1522 0.39687 0.39687 0 0 1 0.12329-0.53158 0.39687 0.39687 0 0 1 0.53753 0.094 0.39687 0.39687 0 0 1-0.0644 0.54188" opacity=".5" style="paint-order:markers stroke fill"/>
    <path d="m933.44 323.07a0.39687 0.39687 0 0 1-0.52404-0.15219 0.39687 0.39687 0 0 1 0.12328-0.53158 0.39687 0.39687 0 0 1 0.53753 0.094 0.39687 0.39687 0 0 1-0.0645 0.54187" opacity=".5" style="paint-order:markers stroke fill"/>
    <path d="m918.36 413.83a0.39687 0.39687 0 0 1-0.52404-0.15219 0.39687 0.39687 0 0 1 0.12328-0.53159 0.39687 0.39687 0 0 1 0.53754 0.094 0.39687 0.39687 0 0 1-0.0645 0.54188" opacity=".5" style="paint-order:markers stroke fill"/>
    <path d="m689.5 382.08a0.39687 0.39687 0 0 1-0.52405-0.15219 0.39687 0.39687 0 0 1 0.12329-0.53159 0.39687 0.39687 0 0 1 0.53753 0.094 0.39687 0.39687 0 0 1-0.0644 0.54188" opacity=".5" style="paint-order:markers stroke fill"/>
    <path d="m859.62 321.75a0.39687 0.39687 0 0 1-0.52404-0.1522 0.39687 0.39687 0 0 1 0.12329-0.53158 0.39687 0.39687 0 0 1 0.53753 0.094 0.39687 0.39687 0 0 1-0.0645 0.54187" opacity=".5" style="paint-order:markers stroke fill"/>
    <path d="m893.75 384.99a0.39687 0.39687 0 0 1-0.52404-0.15219 0.39687 0.39687 0 0 1 0.12328-0.53159 0.39687 0.39687 0 0 1 0.53753 0.094 0.39687 0.39687 0 0 1-0.0645 0.54188" opacity=".5" style="paint-order:markers stroke fill"/>
    <path d="m624.41 306.14a0.39687 0.39687 0 0 1-0.52404-0.15219 0.39687 0.39687 0 0 1 0.12329-0.53158 0.39687 0.39687 0 0 1 0.53753 0.094 0.39687 0.39687 0 0 1-0.0644 0.54187" opacity=".5" style="paint-order:markers stroke fill"/>
    <path transform="scale(-1)" d="m-733.7-510.43a0.39687 0.39687 0 0 1-0.52404-0.15219 0.39687 0.39687 0 0 1 0.12329-0.53158 0.39687 0.39687 0 0 1 0.53753 0.094 0.39687 0.39687 0 0 1-0.0644 0.54187" style="paint-order:markers stroke fill"/>
    <path transform="scale(-1)" d="m-527.66-489.47a0.39687 0.39687 0 0 1-0.52404-0.15219 0.39687 0.39687 0 0 1 0.12329-0.53159 0.39687 0.39687 0 0 1 0.53753 0.094 0.39687 0.39687 0 0 1-0.0644 0.54187" style="paint-order:markers stroke fill"/>
    <path transform="scale(-1)" d="m-601.25-480.87a0.39687 0.39687 0 0 1-0.52404-0.15219 0.39687 0.39687 0 0 1 0.12329-0.53159 0.39687 0.39687 0 0 1 0.53753 0.094 0.39687 0.39687 0 0 1-0.0644 0.54187" style="paint-order:markers stroke fill"/>
    <path transform="scale(-1)" d="m-797.7-454.92a0.39687 0.39687 0 0 1-0.52404-0.15219 0.39687 0.39687 0 0 1 0.12328-0.53158 0.39687 0.39687 0 0 1 0.53754 0.094 0.39687 0.39687 0 0 1-0.0645 0.54187" style="paint-order:markers stroke fill"/>
    <path transform="scale(-1)" d="m-680.63-473.81a0.66146 0.66146 0 0 1-0.8734-0.25366 0.66146 0.66146 0 0 1 0.20548-0.88597 0.66146 0.66146 0 0 1 0.89589 0.15669 0.66146 0.66146 0 0 1-0.10742 0.90312" opacity=".5" style="paint-order:markers stroke fill"/>
    <path transform="scale(-1)" d="m-545.93-470.06a0.66146 0.66146 0 0 1-0.8734-0.25365 0.66146 0.66146 0 0 1 0.20548-0.88598 0.66146 0.66146 0 0 1 0.89589 0.15669 0.66146 0.66146 0 0 1-0.10743 0.90312" opacity=".5" style="paint-order:markers stroke fill"/>
    <path transform="scale(-1)" d="m-930.17-514.76a0.39687 0.39687 0 0 1-0.52404-0.15219 0.39687 0.39687 0 0 1 0.12329-0.53159 0.39687 0.39687 0 0 1 0.53753 0.094 0.39687 0.39687 0 0 1-0.0644 0.54188" opacity=".5" style="paint-order:markers stroke fill"/>
    <path transform="scale(-1)" d="m-776.45-465.02a0.39687 0.39687 0 0 1-0.52404-0.1522 0.39687 0.39687 0 0 1 0.12329-0.53158 0.39687 0.39687 0 0 1 0.53753 0.094 0.39687 0.39687 0 0 1-0.0644 0.54187" opacity=".5" style="paint-order:markers stroke fill"/>
    <path transform="scale(-1)" d="m-538.59-499.15a0.39687 0.39687 0 0 1-0.52404-0.15219 0.39687 0.39687 0 0 1 0.12328-0.53159 0.39687 0.39687 0 0 1 0.53754 0.094 0.39687 0.39687 0 0 1-0.0645 0.54187" opacity=".5" style="paint-order:markers stroke fill"/>
    <path transform="matrix(0,1,1,0,0,0)" d="m422.12 991.09a0.39687 0.39687 0 0 1-0.52404-0.15219 0.39687 0.39687 0 0 1 0.12329-0.53158 0.39687 0.39687 0 0 1 0.53753 0.094 0.39687 0.39687 0 0 1-0.0644 0.54187" style="paint-order:markers stroke fill"/>
    <path transform="matrix(0,1,1,0,0,0)" d="m395.66 1001.7a0.39687 0.39687 0 0 1-0.52404-0.1522 0.39687 0.39687 0 0 1 0.12329-0.5316 0.39687 0.39687 0 0 1 0.53753 0.094 0.39687 0.39687 0 0 1-0.0645 0.5419" style="paint-order:markers stroke fill"/>
    <path transform="matrix(0,1,1,0,0,0)" d="m385.07 964.63a0.39687 0.39687 0 0 1-0.52404-0.15219 0.39687 0.39687 0 0 1 0.12328-0.53159 0.39687 0.39687 0 0 1 0.53754 0.094 0.39687 0.39687 0 0 1-0.0645 0.54188" style="paint-order:markers stroke fill"/>
    <path transform="matrix(0,1,1,0,0,0)" d="m485.81 961.93a0.66146 0.66146 0 0 1-0.8734-0.25365 0.66146 0.66146 0 0 1 0.20547-0.88597 0.66146 0.66146 0 0 1 0.89589 0.15668 0.66146 0.66146 0 0 1-0.10742 0.90313" opacity=".5" style="paint-order:markers stroke fill"/>
    <path transform="matrix(0,1,1,0,0,0)" d="m326.42 981.93a0.39687 0.39687 0 0 1-0.52404-0.1522 0.39687 0.39687 0 0 1 0.12329-0.53158 0.39687 0.39687 0 0 1 0.53753 0.094 0.39687 0.39687 0 0 1-0.0644 0.54187" opacity=".5" style="paint-order:markers stroke fill"/>
    <path transform="scale(-1,1)" d="m-842.65 484.71a0.39687 0.39687 0 0 1-0.52404-0.15219 0.39687 0.39687 0 0 1 0.12328-0.53158 0.39687 0.39687 0 0 1 0.53753 0.094 0.39687 0.39687 0 0 1-0.0644 0.54187" style="paint-order:markers stroke fill"/>
    <path transform="scale(-1,1)" d="m-856.19 494.02a0.66146 0.66146 0 0 1-0.8734-0.25365 0.66146 0.66146 0 0 1 0.20548-0.88598 0.66146 0.66146 0 0 1 0.89589 0.15669 0.66146 0.66146 0 0 1-0.10743 0.90312" opacity=".5" style="paint-order:markers stroke fill"/>
    <path transform="scale(-1,1)" d="m-832.59 502.2a0.39687 0.39687 0 0 1-0.52404-0.15219 0.39687 0.39687 0 0 1 0.12328-0.53159 0.39687 0.39687 0 0 1 0.53754 0.094 0.39687 0.39687 0 0 1-0.0645 0.54188" opacity=".5" style="paint-order:markers stroke fill"/>
    <path transform="scale(1,-1)" d="m1008.1-309.27a0.66146 0.66146 0 0 1-0.8734-0.25365 0.66146 0.66146 0 0 1 0.2054-0.88597 0.66146 0.66146 0 0 1 0.8959 0.15668 0.66146 0.66146 0 0 1-0.1074 0.90313" opacity=".5" style="paint-order:markers stroke fill"/>
    <path transform="scale(1,-1)" d="m999.13-304.26a0.39687 0.39687 0 0 1-0.52404-0.15219 0.39687 0.39687 0 0 1 0.12328-0.53158 0.39687 0.39687 0 0 1 0.53754 0.094 0.39687 0.39687 0 0 1-0.0645 0.54187" opacity=".5" style="paint-order:markers stroke fill"/>
   </g>
   <g stroke-linecap="square" stroke-width=".26458">
    <path d="m568.81 352.87-0.35556-0.96735-0.96735-0.35556 0.96735-0.35556 0.35556-0.96736 0.35556 0.96736 0.96736 0.35556-0.96736 0.35556z" opacity=".75" style="paint-order:markers stroke fill"/>
    <path d="m755.07 498.66-0.35556-0.96736-0.96735-0.35556 0.96735-0.35556 0.35556-0.96736 0.35557 0.96736 0.96735 0.35556-0.96735 0.35556z" opacity=".75" style="paint-order:markers stroke fill"/>
    <path d="m978.91 339.38-0.35556-0.96735-0.96736-0.35557 0.96736-0.35556 0.35556-0.96735 0.35556 0.96735 0.96736 0.35556-0.96736 0.35557z" opacity=".75" style="paint-order:markers stroke fill"/>
    <path d="m797.14 295.99-0.35556-0.96736-0.96736-0.35556 0.96736-0.35556 0.35556-0.96736 0.35556 0.96736 0.96736 0.35556-0.96736 0.35556z" opacity=".75" style="paint-order:markers stroke fill"/>
    <path d="m896.1 476.43-0.35556-0.96735-0.96735-0.35557 0.96735-0.35556 0.35556-0.96735 0.35557 0.96735 0.96735 0.35556-0.96735 0.35557z" opacity=".75" style="paint-order:markers stroke fill"/>
    <path d="m610.35 321.39-0.35556-0.96735-0.96735-0.35556 0.96735-0.35557 0.35556-0.96735 0.35557 0.96735 0.96735 0.35557-0.96735 0.35556z" style="paint-order:markers stroke fill"/>
   </g>
   <path transform="matrix(.010512 .0060694 -.047809 .082807 737.8 457.3)" d="m-252.9 100.15h-83.615l41.808-72.413z" opacity=".75" style="paint-order:markers stroke fill"/>
   <circle transform="rotate(30)" cx="864.03" cy="36.711" r=".50749" opacity=".75" style="paint-order:markers stroke fill"/>
   <path transform="matrix(.014017 .0080925 -.063745 .11041 996.98 453.96)" d="m-252.9 100.15h-83.615l41.808-72.413z" opacity=".5" style="paint-order:markers stroke fill"/>
   <circle transform="rotate(30)" cx="1085.6" cy="-92.583" r=".67665" opacity=".5" style="paint-order:markers stroke fill"/>
   <path transform="matrix(.010512 .0060694 -.047809 .082807 758.44 308.61)" d="m-252.9 100.15h-83.615l41.808-72.413z" opacity=".5" style="paint-order:markers stroke fill"/>
   <circle transform="rotate(30)" cx="807.55" cy="-102.38" r=".50749" opacity=".5" style="paint-order:markers stroke fill"/>
  </g>
 </g>
</svg>
