<?xml version="1.0" encoding="UTF-8" standalone="no"?>
<svg
   xmlns:dc="http://purl.org/dc/elements/1.1/"
   xmlns:cc="http://creativecommons.org/ns#"
   xmlns:rdf="http://www.w3.org/1999/02/22-rdf-syntax-ns#"
   xmlns:svg="http://www.w3.org/2000/svg"
   xmlns="http://www.w3.org/2000/svg"
   id="svg2494"
   version="1.1"
   viewBox="0 0 444.38193 189.72237"
   height="189.72237mm"
   width="444.38193mm">
  <defs
     id="defs2488" />
  <metadata
     id="metadata2491">
    <rdf:RDF>
      <cc:Work
         rdf:about="">
        <dc:format>image/svg+xml</dc:format>
        <dc:type
           rdf:resource="http://purl.org/dc/dcmitype/StillImage" />
        <dc:title></dc:title>
      </cc:Work>
    </rdf:RDF>
  </metadata>
  <g
     transform="translate(132.23263,-29.115005)"
     id="layer1">
    <g
       transform="translate(-16.018485,580.28843)"
       id="g5726">
      <path
         d="m 102.89664,-504.25394 a 0.39687499,0.39687499 0 0 1 -0.52404,-0.15219 0.39687499,0.39687499 0 0 1 0.12328,-0.53159 0.39687499,0.39687499 0 0 1 0.53754,0.094 0.39687499,0.39687499 0 0 1 -0.0645,0.54188"
         id="path3277"
         style="opacity:1;fill:#b3b3b3;fill-opacity:1;stroke-width:0.529167;stroke-linecap:round;stroke-linejoin:round;paint-order:markers stroke fill" />
      <path
         style="opacity:1;fill:#b3b3b3;fill-opacity:1;stroke-width:0.529167;stroke-linecap:round;stroke-linejoin:round;paint-order:markers stroke fill"
         id="path3279"
         d="m 76.438316,-493.67063 a 0.39687499,0.39687499 0 0 1 -0.524041,-0.15219 0.39687499,0.39687499 0 0 1 0.123286,-0.53158 0.39687499,0.39687499 0 0 1 0.537534,0.094 0.39687499,0.39687499 0 0 1 -0.06446,0.54187" />
      <path
         d="m 65.854987,-530.71232 a 0.39687499,0.39687499 0 0 1 -0.52404,-0.15219 0.39687499,0.39687499 0 0 1 0.123286,-0.53158 0.39687499,0.39687499 0 0 1 0.537533,0.094 0.39687499,0.39687499 0 0 1 -0.06445,0.54187"
         id="path3281"
         style="opacity:1;fill:#b3b3b3;fill-opacity:1;stroke-width:0.529167;stroke-linecap:round;stroke-linejoin:round;paint-order:markers stroke fill" />
      <path
         style="opacity:1;fill:#b3b3b3;fill-opacity:1;stroke-width:0.529167;stroke-linecap:round;stroke-linejoin:round;paint-order:markers stroke fill"
         id="path3283"
         d="m -2.9366849,-456.62903 a 0.39687499,0.39687499 0 0 1 -0.5240404,-0.1522 0.39687499,0.39687499 0 0 1 0.1232859,-0.53158 0.39687499,0.39687499 0 0 1 0.5375336,0.094 0.39687499,0.39687499 0 0 1 -0.064454,0.54188" />
      <path
         d="m 106.04336,-416.99875 a 0.39687499,0.39687499 0 0 1 -0.52404,-0.1522 0.39687499,0.39687499 0 0 1 0.12328,-0.53158 0.39687499,0.39687499 0 0 1 0.53754,0.094 0.39687499,0.39687499 0 0 1 -0.0645,0.54187"
         id="path3283-3"
         style="opacity:1;fill:#b3b3b3;fill-opacity:1;stroke-width:0.529167;stroke-linecap:round;stroke-linejoin:round;paint-order:markers stroke fill" />
      <path
         d="m 311.4667,-508.67219 a 0.39687499,0.39687499 0 0 1 -0.52404,-0.15219 0.39687499,0.39687499 0 0 1 0.12329,-0.53158 0.39687499,0.39687499 0 0 1 0.53753,0.094 0.39687499,0.39687499 0 0 1 -0.0644,0.54187"
         id="path3283-7"
         style="opacity:1;fill:#b3b3b3;fill-opacity:1;stroke-width:0.529167;stroke-linecap:round;stroke-linejoin:round;paint-order:markers stroke fill" />
      <path
         d="m 327.95254,-396.04481 a 0.39687499,0.39687499 0 0 1 -0.52404,-0.15219 0.39687499,0.39687499 0 0 1 0.12329,-0.53158 0.39687499,0.39687499 0 0 1 0.53753,0.094 0.39687499,0.39687499 0 0 1 -0.0644,0.54187"
         id="path3283-6"
         style="opacity:1;fill:#b3b3b3;fill-opacity:1;stroke-width:0.529167;stroke-linecap:round;stroke-linejoin:round;paint-order:markers stroke fill" />
      <path
         d="m -77.303529,-503.43372 a 0.39687499,0.39687499 0 0 1 -0.52404,-0.15219 0.39687499,0.39687499 0 0 1 0.123286,-0.53159 0.39687499,0.39687499 0 0 1 0.537534,0.094 0.39687499,0.39687499 0 0 1 -0.06446,0.54188"
         id="path3283-8"
         style="opacity:1;fill:#b3b3b3;fill-opacity:1;stroke-width:0.529167;stroke-linecap:round;stroke-linejoin:round;paint-order:markers stroke fill" />
      <path
         d="m -39.106824,-536.3613 a 0.39687499,0.39687499 0 0 1 -0.52404,-0.15219 0.39687499,0.39687499 0 0 1 0.123286,-0.53159 0.39687499,0.39687499 0 0 1 0.537533,0.094 0.39687499,0.39687499 0 0 1 -0.06445,0.54188"
         id="path3283-35"
         style="opacity:1;fill:#b3b3b3;fill-opacity:1;stroke-width:0.529167;stroke-linecap:round;stroke-linejoin:round;paint-order:markers stroke fill" />
      <path
         d="m -115.63563,-471.62864 a 0.39687499,0.39687499 0 0 1 -0.52404,-0.15219 0.39687499,0.39687499 0 0 1 0.12329,-0.53158 0.39687499,0.39687499 0 0 1 0.53753,0.094 0.39687499,0.39687499 0 0 1 -0.0644,0.54187"
         id="path3283-74"
         style="opacity:1;fill:#b3b3b3;fill-opacity:1;stroke-width:0.529167;stroke-linecap:round;stroke-linejoin:round;paint-order:markers stroke fill" />
      <path
         style="opacity:1;fill:#b3b3b3;fill-opacity:1;stroke-width:0.529167;stroke-linecap:round;stroke-linejoin:round;paint-order:markers stroke fill"
         id="path3283-3-8"
         d="m 238.49559,-387.4404 a 0.39687499,0.39687499 0 0 1 -0.52404,-0.1522 0.39687499,0.39687499 0 0 1 0.12328,-0.53158 0.39687499,0.39687499 0 0 1 0.53754,0.094 0.39687499,0.39687499 0 0 1 -0.0645,0.54187" />
      <path
         style="opacity:1;fill:#b3b3b3;fill-opacity:1;stroke-width:0.529167;stroke-linecap:round;stroke-linejoin:round;paint-order:markers stroke fill"
         id="path3283-3-9"
         d="m 212.30183,-550.42368 a 0.39687499,0.39687499 0 0 1 -0.52404,-0.15219 0.39687499,0.39687499 0 0 1 0.12329,-0.53159 0.39687499,0.39687499 0 0 1 0.53753,0.094 0.39687499,0.39687499 0 0 1 -0.0645,0.54187" />
      <path
         style="opacity:1;fill:#b3b3b3;fill-opacity:1;stroke-width:0.529167;stroke-linecap:round;stroke-linejoin:round;paint-order:markers stroke fill"
         id="path3283-3-3"
         d="m 42.036601,-361.49506 a 0.39687499,0.39687499 0 0 1 -0.52404,-0.15219 0.39687499,0.39687499 0 0 1 0.123286,-0.53159 0.39687499,0.39687499 0 0 1 0.537533,0.094 0.39687499,0.39687499 0 0 1 -0.06445,0.54188" />
    </g>
  </g>
</svg>
